<svg width="29" height="30" viewBox="0 0 29 30" fill="none" xmlns="http://www.w3.org/2000/svg">
<g clip-path="url(#clip0_362:453)">
<g filter="url(#filter0_d_362:453)">
<path d="M22.7529 25C12.5348 25.0151 4.77985 16.8244 4.79078 6.25314C4.79078 5.56278 5.327 5 5.98846 5H9.14956C9.7431 5 10.2473 5.45516 10.3345 6.06791C10.5434 7.5365 10.953 8.96621 11.5511 10.3134L11.6741 10.5906C11.8453 10.9761 11.7293 11.4342 11.398 11.6811C10.419 12.4107 10.0449 13.8794 10.8075 15.0254C11.7646 16.4636 12.971 17.7224 14.3486 18.7208C15.4465 19.5165 16.8536 19.1261 17.5526 18.1046C17.7894 17.7586 18.2285 17.6375 18.5981 17.8162L18.8625 17.944C20.1534 18.5681 21.5234 18.9957 22.9306 19.2137C23.5177 19.3046 23.9536 19.8308 23.9536 20.4503V23.75C23.9536 24.4403 23.4161 25 22.7546 25L22.7529 25Z" fill="#038992"/>
</g>
</g>
<defs>
<filter id="filter0_d_362:453" x="0.790771" y="5" width="27.1628" height="28" filterUnits="userSpaceOnUse" color-interpolation-filters="sRGB">
<feFlood flood-opacity="0" result="BackgroundImageFix"/>
<feColorMatrix in="SourceAlpha" type="matrix" values="0 0 0 0 0 0 0 0 0 0 0 0 0 0 0 0 0 0 127 0" result="hardAlpha"/>
<feOffset dy="4"/>
<feGaussianBlur stdDeviation="2"/>
<feComposite in2="hardAlpha" operator="out"/>
<feColorMatrix type="matrix" values="0 0 0 0 0 0 0 0 0 0 0 0 0 0 0 0 0 0 0.25 0"/>
<feBlend mode="normal" in2="BackgroundImageFix" result="effect1_dropShadow_362:453"/>
<feBlend mode="normal" in="SourceGraphic" in2="effect1_dropShadow_362:453" result="shape"/>
</filter>
<clipPath id="clip0_362:453">
<rect width="28.7443" height="30" fill="white"/>
</clipPath>
</defs>
</svg>
