<?xml version="1.0" encoding="UTF-8"?>
<!DOCTYPE svg PUBLIC "-//W3C//DTD SVG 1.1//EN" "http://www.w3.org/Graphics/SVG/1.1/DTD/svg11.dtd">
<!-- Creator: CorelDRAW 2021 (64-Bit) -->
<svg xmlns="http://www.w3.org/2000/svg" xml:space="preserve" width="210mm" height="297mm" version="1.1" style="shape-rendering:geometricPrecision; text-rendering:geometricPrecision; image-rendering:optimizeQuality; fill-rule:evenodd; clip-rule:evenodd"
viewBox="0 0 21000 29700"
 xmlns:xlink="http://www.w3.org/1999/xlink"
 xmlns:xodm="http://www.corel.com/coreldraw/odm/2003">
 <defs>
  <style type="text/css">
   <![CDATA[
    .fil0 {fill:#038992;fill-rule:nonzero}
   ]]>
  </style>
 </defs>
 <g id="Слой_x0020_1">
  <metadata id="CorelCorpID_0Corel-Layer"/>
  <path class="fil0" d="M10757.43 14974.02l-49.93 49.93 49.93 49.94c7.67,7.67 7.67,20.1 0,27.77 -3.83,3.83 -8.86,5.75 -13.89,5.75 -5.02,0 -10.05,-1.92 -13.88,-5.75l-49.94 -49.94 -49.93 49.94c-3.83,3.83 -8.86,5.75 -13.89,5.75 -5.02,0 -10.05,-1.92 -13.88,-5.75 -7.67,-7.67 -7.67,-20.1 0,-27.77l49.93 -49.94 -49.93 -49.93c-7.67,-7.67 -7.67,-20.1 0,-27.77 7.67,-7.67 20.1,-7.67 27.77,0l49.93 49.93 49.94 -49.93c7.67,-7.67 20.1,-7.67 27.77,0 7.67,7.67 7.67,20.1 0,27.77zm-206.65 52.17c-10.81,1.82 -23.2,2.67 -38.95,2.67 -31.47,0 -61.78,-6.12 -90.08,-18.19 -4.99,-2.13 -10.65,-2.1 -15.62,0.09l-89.69 39.54 30.8 -76.18c2.74,-6.79 1.49,-14.53 -3.26,-20.1 -28.94,-33.95 -44.23,-74.61 -44.23,-117.6 0,-106.11 95.14,-192.44 212.08,-192.44 116.94,0 212.08,86.33 212.08,192.44 0,15.85 -1.42,29.43 -4.36,41.52 -2.55,10.54 3.92,21.16 14.46,23.71 10.54,2.56 21.16,-3.91 23.71,-14.46 3.68,-15.16 5.46,-31.77 5.46,-50.77 0,-62.23 -26.37,-120.63 -74.24,-164.45 -47.4,-43.38 -110.3,-67.27 -177.11,-67.27 -66.81,0 -129.71,23.89 -177.11,67.27 -47.88,43.82 -74.25,102.22 -74.25,164.45 0,48.53 15.87,94.51 46.02,133.7l-44.58 110.29c-3,7.41 -1.21,15.9 4.53,21.46 3.75,3.63 8.67,5.54 13.68,5.54 2.67,0 5.37,-0.54 7.92,-1.67l126.32 -55.68c30.87,12 63.62,18.08 97.47,18.08 18,0 32.45,-1.03 45.48,-3.22 10.69,-1.81 17.91,-11.93 16.1,-22.63 -1.8,-10.69 -11.93,-17.9 -22.63,-16.1z"/>
  <path class="fil0" d="M237113.04 59483.83c-10.81,1.82 -19.08,2.67 -34.83,2.67 -33.51,3.09 -51.09,-2.42 -71.54,-18.19 -4.99,-2.13 -10.65,-2.1 -15.62,0.09l-89.69 39.54 30.8 -76.18c2.74,-6.79 1.49,-14.53 -3.26,-20.1 -28.94,-33.95 -44.23,-74.61 -44.23,-117.59 0,-106.11 95.14,-192.44 212.07,-192.44 116.94,0 211.14,66.06 211.14,172.17 0,15.85 -1.42,29.42 -4.36,41.51 -2.55,10.54 3.92,21.16 14.46,23.71 10.54,2.56 21.16,-3.91 23.71,-14.46 3.68,-15.16 5.46,-31.76 5.46,-50.76 0,-132.36 -129.09,-211.45 -250.41,-211.45 -66.8,0 -129.7,23.89 -177.1,67.27 -47.88,43.82 -74.25,102.22 -74.25,164.45 0,48.52 15.87,94.5 46.02,133.69l-44.58 110.29c-3,7.41 -1.21,15.9 4.53,21.46 3.75,3.63 8.67,5.54 13.68,5.54 2.67,0 5.37,-0.54 7.92,-1.67l126.32 -55.68c30.87,12 45.09,18.08 78.93,18.08 18,0 28.33,-1.03 41.36,-3.22 10.69,-1.81 17.91,-11.93 16.1,-22.63 -1.8,-10.69 -11.93,-17.9 -22.63,-16.1z"/>
 </g>
</svg>
