<svg width="25" height="26" viewBox="0 0 25 26" fill="none" xmlns="http://www.w3.org/2000/svg">
<path d="M12.5 0.979401C5.6075 0.979401 0 6.58667 0 13.4787C0 20.3709 5.6075 25.9781 12.5 25.9781C19.3925 25.9781 25 20.3709 25 13.4787C25 6.58667 19.3925 0.979401 12.5 0.979401ZM12.5 23.7055C6.86068 23.7055 2.27273 19.1178 2.27273 13.4788C2.27273 7.83978 6.86068 3.25213 12.5 3.25213C18.1393 3.25213 22.7273 7.83978 22.7273 13.4787C22.7273 19.1179 18.1393 23.7055 12.5 23.7055Z" fill="#038992"/>
<path d="M12.5 10.8271C11.8724 10.8271 11.3636 11.3359 11.3636 11.9635V19.538C11.3636 20.1656 11.8724 20.6743 12.5 20.6743C13.1276 20.6743 13.6364 20.1656 13.6364 19.538V11.9635C13.6364 11.336 13.1276 10.8271 12.5 10.8271Z" fill="#038992"/>
<path d="M12.5 6.28189C12.2008 6.28189 11.9083 6.4031 11.6962 6.61447C11.4849 6.82583 11.3636 7.11901 11.3636 7.41825C11.3636 7.7175 11.4849 8.00992 11.6962 8.22204C11.9076 8.4334 12.2008 8.55462 12.5 8.55462C12.7993 8.55462 13.0917 8.4334 13.3037 8.22204C13.5151 8.00992 13.6364 7.7175 13.6364 7.41825C13.6364 7.11901 13.5151 6.82583 13.3037 6.61447C13.0917 6.40303 12.7993 6.28189 12.5 6.28189Z" fill="#038992"/>
</svg>
