<svg width="22" height="23" viewBox="0 0 22 23" fill="none" xmlns="http://www.w3.org/2000/svg">
<g clip-path="url(#clip0)">
<path d="M11.6903 22.796H10.3096C9.19291 22.796 8.28433 21.8875 8.28433 20.7708V20.3037C7.80957 20.152 7.3483 19.9605 6.90516 19.7312L6.57413 20.0622C5.77238 20.865 4.48809 20.8414 3.70962 20.0619L2.73376 19.0861C1.95392 18.3071 1.93149 17.0233 2.73402 16.2216L3.06479 15.8908C2.83546 15.4477 2.64404 14.9865 2.49232 14.5116H2.02525C0.908574 14.5116 0 13.6031 0 12.4864V11.1056C0 9.98893 0.908574 9.0804 2.02529 9.0804H2.49236C2.64408 8.60559 2.83551 8.14436 3.06483 7.70123L2.7338 7.37024C1.93175 6.56904 1.95388 5.28505 2.73406 4.50573L3.71001 3.52982C4.49028 2.74848 5.77427 2.72897 6.57448 3.53008L6.90521 3.86081C7.34834 3.63153 7.80961 3.44006 8.28438 3.28834V2.82127C8.28438 1.70455 9.19291 0.796021 10.3097 0.796021H11.6904C12.8071 0.796021 13.7156 1.70455 13.7156 2.82127V3.28838C14.1904 3.44006 14.6517 3.63153 15.0948 3.86085L15.4258 3.52982C16.2276 2.72708 17.5119 2.75063 18.2903 3.53012L19.2662 4.50594C20.046 5.28492 20.0685 6.56879 19.2659 7.37045L18.9352 7.70123C19.1645 8.14436 19.3559 8.60555 19.5076 9.0804H19.9747C21.0914 9.0804 22 9.98893 22 11.1056V12.4864C22 13.6031 21.0914 14.5116 19.9747 14.5116H19.5076C19.3559 14.9865 19.1645 15.4477 18.9352 15.8908L19.2662 16.2218C20.0683 17.023 20.0461 18.307 19.2659 19.0864L18.29 20.0623C17.5097 20.8436 16.2257 20.8631 15.4255 20.062L15.0948 19.7313C14.6517 19.9606 14.1904 20.152 13.7156 20.3037V20.7709C13.7156 21.8875 12.8071 22.796 11.6903 22.796ZM7.12065 18.3775C7.73627 18.7416 8.39884 19.0167 9.08995 19.195C9.37458 19.2685 9.57344 19.5252 9.57344 19.8191V20.7708C9.57344 21.1767 9.90374 21.507 10.3097 21.507H11.6904C12.0963 21.507 12.4266 21.1767 12.4266 20.7708V19.8191C12.4266 19.5252 12.6255 19.2685 12.9101 19.195C13.6012 19.0167 14.2638 18.7416 14.8794 18.3775C15.1327 18.2278 15.4552 18.2685 15.6633 18.4766L16.3374 19.1507C16.628 19.4417 17.0947 19.435 17.3782 19.151L18.3548 18.1745C18.6376 17.892 18.6471 17.4252 18.355 17.1336L17.6807 16.4592C17.4726 16.2511 17.4319 15.9286 17.5816 15.6754C17.9457 15.0598 18.2207 14.3972 18.399 13.7061C18.4725 13.4214 18.7292 13.2226 19.0231 13.2226H19.9748C20.3807 13.2226 20.711 12.8924 20.711 12.4864V11.1057C20.711 10.6998 20.3807 10.3695 19.9748 10.3695H19.0231C18.7292 10.3695 18.4725 10.1706 18.399 9.88606C18.2207 9.19491 17.9456 8.53233 17.5816 7.91676C17.4319 7.6635 17.4726 7.34098 17.6807 7.13292L18.3548 6.45879C18.6462 6.16772 18.6386 5.70108 18.355 5.41787L17.3786 4.4414C17.0955 4.15798 16.6287 4.14969 16.3377 4.44115L15.6633 5.11554C15.4553 5.32364 15.1326 5.36437 14.8794 5.21458C14.2638 4.85051 13.6012 4.57547 12.9101 4.3971C12.6255 4.32367 12.4266 4.06697 12.4266 3.77302V2.82127C12.4266 2.41534 12.0963 2.08508 11.6904 2.08508H10.3097C9.90378 2.08508 9.57348 2.41534 9.57348 2.82127V3.77294C9.57348 4.06689 9.37462 4.32358 9.09 4.39702C8.39889 4.57538 7.73631 4.85042 7.1207 5.2145C6.86735 5.36424 6.54487 5.32351 6.33682 5.11545L5.66272 4.44132C5.37208 4.15033 4.90531 4.15708 4.62185 4.44102L3.6453 5.41752C3.36248 5.7 3.35302 6.16677 3.64504 6.45844L4.31943 7.13284C4.52749 7.34089 4.56822 7.66341 4.41848 7.91667C4.0544 8.53224 3.7794 9.19482 3.60104 9.88597C3.52756 10.1706 3.27087 10.3694 2.97696 10.3694H2.02529C1.61936 10.3695 1.28906 10.6997 1.28906 11.1056V12.4864C1.28906 12.8923 1.61936 13.2226 2.02529 13.2226H2.97692C3.27087 13.2226 3.52752 13.4214 3.601 13.706C3.77936 14.3972 4.0544 15.0598 4.41843 15.6753C4.56818 15.9286 4.52745 16.2511 4.31939 16.4592L3.64525 17.1333C3.35384 17.4244 3.36145 17.891 3.645 18.1742L4.62146 19.1507C4.9045 19.4341 5.37131 19.4424 5.66238 19.1509L6.33673 18.4765C6.49004 18.3233 6.809 18.1932 7.12065 18.3775Z" fill="#038992"/>
<path d="M11 16.5827C8.36053 16.5827 6.21326 14.4354 6.21326 11.796C6.21326 9.15663 8.36053 7.00931 11 7.00931C13.6394 7.00931 15.7867 9.15663 15.7867 11.796C15.7867 14.4354 13.6394 16.5827 11 16.5827ZM11 8.29837C9.07132 8.29837 7.50232 9.86742 7.50232 11.796C7.50232 13.7246 9.07137 15.2937 11 15.2937C12.9286 15.2937 14.4976 13.7246 14.4976 11.796C14.4976 9.86742 12.9286 8.29837 11 8.29837Z" fill="#038992"/>
</g>
<defs>
<clipPath id="clip0">
<rect width="22" height="22" fill="white" transform="translate(0 0.796021)"/>
</clipPath>
</defs>
</svg>
