<svg width="24" height="22" viewBox="0 0 24 22" fill="none" xmlns="http://www.w3.org/2000/svg">
<path d="M17.242 0.813293C16.1696 0.813293 15.1446 1.05913 14.1956 1.54403C13.5496 1.87404 12.9562 2.31251 12.447 2.83274C11.9378 2.31251 11.3444 1.87404 10.6984 1.54403C9.74938 1.05913 8.72444 0.813293 7.65202 0.813293C3.9549 0.813293 0.947021 3.82117 0.947021 7.51834C0.947021 10.137 2.33001 12.9182 5.05752 15.7848C7.33486 18.1782 10.123 20.1734 12.061 21.4257L12.447 21.6752L12.8331 21.4257C14.771 20.1735 17.5592 18.1782 19.8366 15.7848C22.5641 12.9182 23.947 10.137 23.947 7.51834C23.947 3.82117 20.9391 0.813293 17.242 0.813293ZM18.8059 14.8041C16.7706 16.9431 14.2914 18.7616 12.447 19.9787C10.6026 18.7615 8.12345 16.9431 6.08821 14.8041C3.62076 12.2109 2.3697 9.75963 2.3697 7.51834C2.3697 4.60564 4.73937 2.23597 7.65207 2.23597C9.32898 2.23597 10.8694 3.00626 11.8783 4.34927L12.447 5.10637L13.0158 4.34927C14.0246 3.00626 15.5651 2.23597 17.242 2.23597C20.1547 2.23597 22.5243 4.60564 22.5243 7.51834C22.5243 9.75963 21.2732 12.2109 18.8059 14.8041Z" fill="#038992"/>
</svg>
