<svg width="24" height="18" viewBox="0 0 24 18" fill="none" xmlns="http://www.w3.org/2000/svg">
<path d="M21.952 0.307007H2.995C1.88174 0.307007 0.973511 1.21425 0.973511 2.32849V15.8051C0.973511 16.9155 1.8777 17.8265 2.995 17.8265H21.952C23.0625 17.8265 23.9735 16.9223 23.9735 15.8051V2.32849C23.9735 1.21802 23.0693 0.307007 21.952 0.307007ZM21.6729 1.65466L12.5164 10.8112L3.28065 1.65466H21.6729ZM2.32117 15.526V2.60112L8.81143 9.03573L2.32117 15.526ZM3.27409 16.4789L9.76845 9.98453L12.0441 12.2406C12.3075 12.5018 12.7326 12.5009 12.9949 12.2385L15.2137 10.0197L21.6729 16.4789H3.27409ZM22.6259 15.526L16.1667 9.06677L22.6259 2.60755V15.526Z" fill="#038992"/>
</svg>
