<svg width="22" height="20" viewBox="0 0 22 20" fill="none" xmlns="http://www.w3.org/2000/svg">
<path d="M11.5238 5.3923V10.6304L16.0076 13.2913L16.7619 12.0185L13.0952 9.84465V5.3923H11.5238Z" fill="#038992"/>
<path d="M12.5662 0.15419C7.35429 0.15419 3.14286 4.37608 3.14286 9.58276H0L4.08046 13.6632L4.15378 13.8151L8.38097 9.58276H5.23811C5.23811 5.53373 8.5224 2.24944 12.5714 2.24944C16.6205 2.24944 19.9047 5.53373 19.9047 9.58276C19.9047 13.6318 16.6205 16.9161 12.5714 16.9161C10.5443 16.9161 8.71617 16.0885 7.39097 14.7632L5.90857 16.2456C7.61097 17.9532 9.96286 19.0113 12.5662 19.0113C17.7781 19.0113 22 14.7894 22 9.58276C22 4.37608 17.7781 0.15419 12.5662 0.15419Z" fill="#038992"/>
</svg>
