<svg width="27" height="21" viewBox="0 0 27 21" fill="none" xmlns="http://www.w3.org/2000/svg">
<path d="M25.7712 10.0585L25.7793 10.0546L22.0009 2.87178C21.6954 2.29121 21.0855 1.93062 20.4091 1.93062H19.691V1.26289C19.691 0.995314 19.4654 0.778419 19.1871 0.778419H6.86552C6.58724 0.778419 6.36167 0.995314 6.36167 1.26289V1.93062H5.64358C4.96712 1.93062 4.35724 2.29121 4.05179 2.87178L0.273357 10.0546L0.281431 10.0585C0.119591 10.3148 0.0263062 10.6154 0.0263062 10.9365V18.5248C0.0263062 19.4605 0.817986 20.2216 1.79106 20.2216H24.2616C25.2347 20.2216 26.0263 19.4604 26.0263 18.5248V10.9365C26.0263 10.6154 25.933 10.3148 25.7712 10.0585ZM19.6909 3.00723H20.409C20.6609 3.00723 20.8879 3.14156 21.0017 3.35777L24.0958 9.2397H21.9919V7.42984C21.9919 7.16226 21.7663 6.94537 21.488 6.94537H20.8647V4.34639C20.8647 4.07881 20.6391 3.86192 20.3608 3.86192H19.6909V3.00723ZM20.9842 7.91426V9.23965H18.3254C17.8692 9.23965 17.4533 9.4981 17.2658 9.89795L16.5399 11.4463C16.533 11.4609 16.5178 11.4704 16.5011 11.4704H9.5516C9.53489 11.4704 9.51971 11.4609 9.5128 11.4462L8.78688 9.898C8.5994 9.4981 8.1835 9.23965 7.72728 9.23965H5.06843V7.91426H20.9842ZM7.36938 1.74737H18.6832V3.86187H7.36938V1.74737ZM19.857 4.83081V6.94532H6.19562V4.83081H19.857ZM5.05091 3.35777C5.16466 3.14151 5.39175 3.00723 5.64358 3.00723H6.36167V3.86187H5.69177C5.41349 3.86187 5.18792 4.07876 5.18792 4.34634V6.94532H4.56458C4.28629 6.94532 4.06072 7.16221 4.06072 7.42979V9.23965H1.95681L5.05091 3.35777ZM24.2616 19.145H1.79106C1.43538 19.145 1.14598 18.8667 1.14598 18.5248V10.9365C1.14598 10.5945 1.43533 10.3163 1.79106 10.3163H7.72728C7.74394 10.3163 7.75922 10.3258 7.76613 10.3405L8.49205 11.8887C8.67953 12.2886 9.09538 12.547 9.5516 12.547H16.501C16.9572 12.547 17.3731 12.2886 17.5606 11.8888L18.2865 10.3405V10.3404C18.2934 10.3258 18.3086 10.3163 18.3253 10.3163H24.2616C24.6172 10.3163 24.9065 10.5946 24.9065 10.9365V18.5248H24.9066C24.9066 18.8668 24.6173 19.145 24.2616 19.145Z" fill="#038992"/>
</svg>
