<svg width="19" height="19" viewBox="0 0 19 19" fill="none" xmlns="http://www.w3.org/2000/svg">
<path d="M9.94702 18.2133C14.9094 18.2133 18.947 14.176 18.947 9.21326C18.947 8.35669 18.8275 7.51257 18.5907 6.70416C18.4741 6.30664 18.059 6.07831 17.6603 6.19495C17.2625 6.31122 17.0349 6.72778 17.1511 7.12531C17.3472 7.79694 17.447 8.49969 17.447 9.21326C17.447 13.3487 14.0825 16.7133 9.94702 16.7133C5.81158 16.7133 2.44702 13.3487 2.44702 9.21326C2.44702 5.07782 5.81158 1.71326 9.94702 1.71326C11.45 1.71326 12.8959 2.15271 14.1286 2.98383C14.4717 3.21545 14.9383 3.12445 15.1696 2.78131C15.401 2.43781 15.3107 1.97162 14.9672 1.74017C13.4859 0.741333 11.7501 0.213257 9.94702 0.213257C4.98468 0.213257 0.947021 4.25055 0.947021 9.21326C0.947021 14.176 4.98468 18.2133 9.94702 18.2133Z" fill="#038992"/>
</svg>
