<svg width="24" height="25" viewBox="0 0 24 25" fill="none" xmlns="http://www.w3.org/2000/svg">
<g clip-path="url(#clip0)">
<path d="M18.5863 0.181641H5.4137C4.27168 0.181641 3.34253 1.11075 3.34253 2.25281V22.1105C3.34253 23.2525 4.27164 24.1817 5.4137 24.1817H15.0374C15.3696 24.1817 15.6817 24.0524 15.9166 23.8175L20.2932 19.4409C20.528 19.2061 20.6575 18.8938 20.6575 18.5616V2.25281C20.6575 1.11075 19.7283 0.181641 18.5863 0.181641ZM15.9648 21.7783V19.4889H18.2542L15.9648 21.7783ZM19.2497 18.0812H15.2609C14.8722 18.0812 14.557 18.3963 14.557 18.7851V22.7738H5.4137C5.04793 22.7738 4.75032 22.4763 4.75032 22.1105V2.25281C4.75032 1.88704 5.04789 1.58943 5.4137 1.58943H18.5863C18.9521 1.58943 19.2497 1.887 19.2497 2.25281V18.0812Z" fill="#038992"/>
<path d="M14.7003 10.8815H14.6332V9.6678C14.6332 8.22195 13.4569 7.04572 12.0111 7.04572C10.5653 7.04572 9.38898 8.22199 9.38898 9.6678V10.8815H9.32181C8.72505 10.8815 8.23956 11.367 8.23956 11.9638V15.6921C8.23956 16.7857 9.1292 17.6753 10.2227 17.6753H13.7994C14.8929 17.6753 15.7825 16.7856 15.7825 15.6921V11.9638C15.7826 11.367 15.2971 10.8815 14.7003 10.8815ZM10.7967 9.6678C10.7968 8.99824 11.3415 8.45356 12.011 8.45356C12.6805 8.45356 13.2253 8.99829 13.2253 9.6678V10.8815H10.7967V9.6678H10.7967ZM14.3748 15.6922C14.3748 16.0094 14.1167 16.2675 13.7994 16.2675H10.2227C9.9055 16.2675 9.64731 16.0094 9.64731 15.6922V12.2893H14.3748V15.6922Z" fill="#038992"/>
</g>
<defs>
<clipPath id="clip0">
<rect width="24" height="24" fill="white" transform="translate(0 0.181641)"/>
</clipPath>
</defs>
</svg>
