<?xml version="1.0" encoding="UTF-8"?>
<!DOCTYPE svg PUBLIC "-//W3C//DTD SVG 1.1//EN" "http://www.w3.org/Graphics/SVG/1.1/DTD/svg11.dtd">
<!-- Creator: CorelDRAW 2021 (64-Bit) -->
<svg xmlns="http://www.w3.org/2000/svg" xml:space="preserve" width="5.0061mm" height="5.0271mm" version="1.1" style="shape-rendering:geometricPrecision; text-rendering:geometricPrecision; image-rendering:optimizeQuality; fill-rule:evenodd; clip-rule:evenodd"
viewBox="0 0 4.73 4.75"
 xmlns:xlink="http://www.w3.org/1999/xlink"
 xmlns:xodm="http://www.corel.com/coreldraw/odm/2003">
 <defs>
  <style type="text/css">
   <![CDATA[
    .fil0 {fill:#038992;fill-rule:nonzero}
   ]]>
  </style>
 </defs>
 <g id="Слой_x0020_1">
  <metadata id="CorelCorpID_0Corel-Layer"/>
  <path class="fil0" d="M2.53 3.97c-0.1,0.02 -0.22,0.03 -0.37,0.03 -0.29,-0.03 -0.37,-0.05 -0.64,-0.16 -0.05,-0.02 -0.1,-0.02 -0.15,0l-0.85 0.37 0.29 -0.72c0.03,-0.06 0.01,-0.14 -0.03,-0.19 -0.27,-0.32 -0.42,-0.7 -0.42,-1.11 0,-1 0.9,-1.82 2,-1.82 1.1,0 1.98,0.62 1.98,1.62 0,0.15 -0.01,0.28 -0.04,0.39 -0.02,0.1 0.04,0.2 0.14,0.22 0.1,0.02 0.2,-0.04 0.22,-0.14 0.03,-0.14 0.05,-0.3 0.05,-0.48 0,-1.28 -1.33,-1.99 -2.35,-1.99 -0.63,0 -1.23,0.23 -1.67,0.64 -0.45,0.41 -0.7,0.97 -0.7,1.55 0,0.46 0.15,0.89 0.43,1.26l-0.42 1.04c-0.03,0.07 -0.01,0.15 0.04,0.2 0.04,0.03 0.08,0.05 0.13,0.05 0.03,0 0.05,-0.01 0.07,-0.02l1.19 -0.53c0.26,0.1 0.38,0.13 0.71,0.16 0.17,0 0.31,-0.01 0.43,-0.03 0.1,-0.02 0.17,-0.11 0.15,-0.21 -0.02,-0.1 -0.11,-0.17 -0.21,-0.15z"/>
 </g>
</svg>
