<svg width="20" height="20" viewBox="0 0 20 20" fill="none" xmlns="http://www.w3.org/2000/svg">
<path d="M19.7297 14.6874L17.8424 16.5746L19.7297 18.4619C20.0195 18.7517 20.0195 19.2217 19.7297 19.5116C19.5848 19.6564 19.3949 19.7289 19.2048 19.7289C19.0149 19.7289 18.8249 19.6564 18.6801 19.5116L16.7927 17.6242L14.9055 19.5116C14.7606 19.6564 14.5707 19.7289 14.3806 19.7289C14.1907 19.7289 14.0007 19.6564 13.8559 19.5116C13.566 19.2217 13.566 18.7517 13.8559 18.4619L15.7431 16.5746L13.8559 14.6874C13.566 14.3975 13.566 13.9275 13.8559 13.6377C14.1457 13.3478 14.6156 13.3478 14.9055 13.6377L16.7927 15.5249L18.6801 13.6377C18.9699 13.3478 19.4398 13.3478 19.7297 13.6377C20.0195 13.9275 20.0195 14.3975 19.7297 14.6874ZM11.9194 16.6591C11.5105 16.7281 11.0425 16.7601 10.447 16.7601C9.25752 16.7601 8.11221 16.5288 7.0427 16.0726C6.85382 15.992 6.64015 15.9933 6.45214 16.0761L3.06244 17.5703L4.22631 14.691C4.32996 14.4347 4.28256 14.1419 4.1031 13.9314C3.00953 12.6484 2.43144 11.1115 2.43144 9.48671C2.43144 5.47615 6.02727 2.21328 10.447 2.21328C14.867 2.21328 18.4627 5.47615 18.4627 9.48671C18.4627 10.0857 18.4089 10.599 18.298 11.056C18.2014 11.4544 18.4461 11.8556 18.8445 11.9522C19.2428 12.0487 19.6441 11.8042 19.7406 11.4057C19.8796 10.8326 19.947 10.205 19.947 9.48671C19.947 7.1349 18.9504 4.92763 17.1409 3.27133C15.3495 1.63186 12.9724 0.728912 10.447 0.728912C7.92188 0.728912 5.54456 1.63186 3.75331 3.27133C1.94366 4.92763 0.947068 7.1349 0.947068 9.48671C0.947068 11.3209 1.54676 13.0586 2.68642 14.5399L1.00114 18.7085C0.887925 18.9886 0.955765 19.3094 1.17262 19.5196C1.3141 19.6567 1.50023 19.7289 1.6894 19.7289C1.79058 19.7289 1.89249 19.7083 1.98874 19.6658L6.76308 17.5613C7.92985 18.0147 9.16765 18.2445 10.447 18.2445C11.1273 18.2445 11.6735 18.2058 12.1661 18.1229C12.5702 18.0547 12.8428 17.6719 12.7746 17.2676C12.7065 16.8635 12.3237 16.591 11.9194 16.6591Z" fill="#038992"/>
</svg>
