<svg width="24" height="27" viewBox="0 0 24 27" fill="none" xmlns="http://www.w3.org/2000/svg">
<path d="M21.4227 11.5803H21.3584V10.0036C21.3584 4.93867 17.2525 0.832764 12.1876 0.832764C7.12263 0.832764 3.01678 4.93867 3.01678 10.0036V11.5803H2.63067C1.21481 11.5803 0.120771 12.8352 0.120771 14.2833V18.3055C0.0851094 19.709 1.194 20.8757 2.59747 20.9113C2.60856 20.9116 2.61958 20.9118 2.63067 20.912H5.01184C5.34911 20.8961 5.60971 20.6098 5.59382 20.2725C5.59326 20.2604 5.59234 20.2482 5.59104 20.2362V12.3525C5.59104 11.9664 5.36581 11.5802 5.01184 11.5802H4.30391V10.0035C4.30391 5.6495 7.83358 2.11983 12.1876 2.11983C16.5416 2.11983 20.0712 5.6495 20.0712 10.0035V11.5802H19.3633C19.0093 11.5802 18.7841 11.9663 18.7841 12.3525V20.2362C18.7482 20.5719 18.9912 20.8732 19.327 20.9091C19.339 20.9104 19.3512 20.9113 19.3633 20.9119H20.1034L20.039 21.0084C19.0735 22.2917 17.5583 23.0433 15.9524 23.0356C15.6008 21.3117 13.9183 20.1992 12.1944 20.5508C10.7202 20.8515 9.65735 22.1425 9.64546 23.647C9.66308 25.4116 11.0986 26.8328 12.8633 26.8326C13.7368 26.8185 14.5695 26.46 15.1801 25.8351C15.5921 25.4132 15.862 24.8732 15.9524 24.2905C17.9635 24.2982 19.86 23.3558 21.0687 21.7485L21.6801 20.8475C23.0638 20.751 23.9326 19.8821 23.9326 18.6272V14.6049C23.9326 13.2214 22.9029 11.5803 21.4227 11.5803ZM4.30391 19.6248H2.63067C1.93777 19.6079 1.38973 19.0326 1.40661 18.3397C1.40692 18.3283 1.40735 18.3169 1.4079 18.3055V14.2832C1.4079 13.5431 1.92274 12.8674 2.63067 12.8674H4.30391V19.6248ZM14.247 24.9342C13.8904 25.3209 13.3893 25.5423 12.8634 25.5456C11.8164 25.529 10.9668 24.6936 10.9327 23.6471C10.9322 22.5986 11.7819 21.7482 12.8304 21.7478C13.8789 21.7474 14.7293 22.597 14.7297 23.6455C14.7297 23.646 14.7297 23.6466 14.7297 23.6471C14.7565 24.1249 14.5813 24.5919 14.247 24.9342ZM22.6455 18.6273C22.6455 19.4961 21.8088 19.6248 21.4227 19.6248H20.0712V12.8674H21.4227C22.1307 12.8674 22.6455 13.8649 22.6455 14.605V18.6273Z" fill="#038992"/>
</svg>
