<svg width="24" height="21" viewBox="0 0 24 21" fill="none" xmlns="http://www.w3.org/2000/svg">
<path d="M20.7601 3.13954C20.6362 1.53961 19.2956 0.275452 17.6645 0.275452H3.13254C1.41989 0.275452 0.0265503 1.66879 0.0265503 3.38144V17.7521C0.0265503 19.4648 1.41989 20.8581 3.13254 20.8581H19.9206C21.6333 20.8581 23.0266 19.4648 23.0266 17.7521V6.12926C23.0266 4.70758 22.0661 3.50681 20.7601 3.13954ZM3.13254 1.72642H17.6646C18.4542 1.72642 19.1159 2.28237 19.2801 3.02332H3.13254C2.52444 3.02332 1.95707 3.19966 1.47752 3.50291V3.38144C1.47752 2.46887 2.21997 1.72642 3.13254 1.72642ZM19.9206 19.4072H3.13254C2.21997 19.4072 1.47752 18.6647 1.47752 17.7521V6.12926C1.47752 5.21669 2.21997 4.47425 3.13254 4.47425H19.9206C20.8332 4.47425 21.5756 5.21669 21.5756 6.12926V8.66112H16.9495C15.1163 8.66112 13.6248 10.1526 13.6248 11.9858C13.6248 13.819 15.1163 15.3105 16.9495 15.3105H21.5756V17.7521C21.5756 18.6647 20.8331 19.4072 19.9206 19.4072ZM21.5756 13.8595H16.9495C15.9163 13.8595 15.0758 13.019 15.0758 11.9858C15.0758 10.9526 15.9163 10.1121 16.9495 10.1121H21.5756V13.8595Z" fill="#038992"/>
</svg>
