<svg width="23" height="24" viewBox="0 0 23 24" fill="none" xmlns="http://www.w3.org/2000/svg">
<g clip-path="url(#clip0)">
<path d="M2.4408 0.832764V23.8328H15.852L20.5593 19.1255V0.832764L2.4408 0.832764ZM3.78845 2.18042H19.2116V17.8881H14.6146V22.4851H3.78841V2.18042H3.78845ZM18.5431 19.2358L15.9622 21.8167V19.2358H18.5431Z" fill="#038992"/>
<path d="M8.625 4.95062H14.375V6.29828H8.625V4.95062Z" fill="#038992"/>
<path d="M5.98956 8.30475H17.0104V9.65241H5.98956V8.30475Z" fill="#038992"/>
<path d="M5.98956 11.1797H17.0104V12.5274H5.98956V11.1797Z" fill="#038992"/>
<path d="M5.98956 14.0547H17.0104V15.4024H5.98956V14.0547Z" fill="#038992"/>
<path d="M5.98956 17.8881H7.40456V19.2358H5.98956V17.8881Z" fill="#038992"/>
<path d="M8.75226 17.8881H11.5V19.2358H8.75226V17.8881Z" fill="#038992"/>
</g>
<defs>
<clipPath id="clip0">
<rect width="23" height="23" fill="white" transform="translate(0 0.832764)"/>
</clipPath>
</defs>
</svg>
