<svg width="99" height="80" viewBox="0 0 99 80" fill="none" xmlns="http://www.w3.org/2000/svg">
<path opacity="0.5" d="M65.9146 61.5005C64.5467 61.4977 63.2157 61.9437 62.1256 62.77L36.2855 41.668C36.6667 40.8749 36.8766 40.0104 36.9017 39.1308C36.9268 38.2511 36.7663 37.3761 36.4309 36.5626L61.8471 18.0736C63.0219 19.0659 64.5195 19.5932 66.0568 19.5561C67.5942 19.5189 69.0646 18.9197 70.1901 17.8718C71.3155 16.824 72.0181 15.4 72.1648 13.8693C72.3115 12.3385 71.8923 10.8071 70.9864 9.56448C70.0805 8.32188 68.7507 7.45427 67.2485 7.12571C65.7462 6.79714 64.1756 7.03039 62.8337 7.78136C61.4918 8.53233 60.4715 9.74896 59.9658 11.2012C59.4601 12.6534 59.5041 14.2406 60.0894 15.6627L34.6732 34.1516C33.7681 33.3828 32.6641 32.8854 31.4885 32.7168C30.3129 32.5482 29.1136 32.7153 28.0289 33.1987C26.9441 33.6822 26.0181 34.4624 25.3575 35.4494C24.697 36.4363 24.3288 37.5899 24.2955 38.777C24.2621 39.9642 24.5649 41.1366 25.169 42.1591C25.7731 43.1816 26.6538 44.0125 27.7097 44.5561C28.7656 45.0998 29.9536 45.3339 31.1368 45.2316C32.32 45.1293 33.4502 44.6947 34.3971 43.9779L60.2373 65.0873C59.6504 66.3193 59.4798 67.7087 59.7513 69.0461C60.0228 70.3835 60.7216 71.5965 61.7425 72.5021C62.7633 73.4077 64.0509 73.957 65.4111 74.0672C66.7713 74.1773 68.1305 73.8424 69.2838 73.1128C70.4371 72.3832 71.322 71.2986 71.8051 70.0223C72.2883 68.746 72.3435 67.3472 71.9625 66.0368C71.5814 64.7264 70.7848 63.5754 69.6926 62.7572C68.6004 61.9389 67.2719 61.4979 65.9072 61.5005H65.9146Z" fill="white"/>
<path d="M19.7053 19.0258L26.317 64.3483C26.4033 64.9449 11.0131 70.4694 10.4362 70.6469L9.08776 70.7184C8.21508 70.7406 7.60864 70.3757 7.50017 69.6263L1.17942 21.6068C1.14574 21.3565 1.21274 21.103 1.36571 20.9019C1.51867 20.7009 1.74512 20.5688 1.99539 20.5345L18.6379 18.2147C18.8866 18.183 19.1379 18.2502 19.3375 18.4019C19.5371 18.5536 19.6692 18.7776 19.7053 19.0258Z" fill="white" stroke="#263238" stroke-linecap="round" stroke-linejoin="round"/>
<path d="M21.5966 18.7758L28.2034 64.0984C28.2436 64.3871 28.1803 64.6807 28.0246 64.9271C27.8689 65.1735 27.6309 65.3568 27.3529 65.4444L10.9741 70.4709C10.8042 70.5212 10.6253 70.5342 10.4499 70.5091C10.2744 70.484 10.1064 70.4213 9.95733 70.3254C9.80828 70.2295 9.68167 70.1025 9.58615 69.9532C9.49062 69.8039 9.42842 69.6357 9.4038 69.4602L3.06579 21.3568C3.03283 21.1062 3.10041 20.8528 3.25377 20.6518C3.40713 20.4509 3.6338 20.3188 3.88423 20.2845L20.512 17.9647C20.7633 17.9288 21.0186 17.994 21.222 18.146C21.4253 18.2981 21.56 18.5245 21.5966 18.7758Z" fill="#263238" stroke="#263238" stroke-linecap="round" stroke-linejoin="round"/>
<path d="M17.6318 65.8183L21.2729 64.6055" stroke="white" stroke-width="2" stroke-linecap="round" stroke-linejoin="round"/>
<path d="M20.3141 19.9688L5.42188 22.5005L11.1313 66.2774L26.3193 61.5615L20.3141 19.9688Z" fill="#92E3A9" stroke="#263238" stroke-linecap="round" stroke-linejoin="round"/>
<path d="M79.7737 19.0238L73.1498 64.3464C73.0635 64.943 88.4537 70.4675 89.0305 70.6449L90.379 70.7164C91.2517 70.7386 91.8581 70.3738 91.9666 69.6244L98.2874 21.6049C98.321 21.3541 98.2537 21.1003 98.1002 20.8992C97.9467 20.6981 97.7196 20.5662 97.4689 20.5325L80.8412 18.2128C80.5925 18.1811 80.3412 18.2483 80.1416 18.4C79.942 18.5517 79.8099 18.7757 79.7737 19.0238Z" fill="white" stroke="#263238" stroke-linecap="round" stroke-linejoin="round"/>
<path d="M77.8754 18.7751L71.2638 64.0977C71.2235 64.3864 71.2868 64.68 71.4425 64.9264C71.5982 65.1728 71.8362 65.3561 72.1143 65.4437L88.493 70.4702C88.663 70.5205 88.8418 70.5335 89.0173 70.5084C89.1928 70.4833 89.3608 70.4206 89.5098 70.3247C89.6589 70.2288 89.7855 70.1018 89.881 69.9525C89.9765 69.8032 90.0387 69.635 90.0633 69.4595L96.4014 21.3562C96.4343 21.1055 96.3667 20.8521 96.2134 20.6511C96.06 20.4502 95.8333 20.3181 95.5829 20.2838L78.9552 17.9641C78.7046 17.9295 78.4506 17.9954 78.2483 18.1473C78.0461 18.2992 77.9121 18.5248 77.8754 18.7751Z" fill="#263238" stroke="#263238" stroke-linecap="round" stroke-linejoin="round"/>
<path d="M77.5039 64.2578L80.9724 65.3844" stroke="white" stroke-width="2" stroke-linecap="round" stroke-linejoin="round"/>
<path d="M79.1517 19.9688L94.0439 22.5005L88.3345 66.2774L73.1465 61.5615L79.1517 19.9688Z" fill="#92E3A9" stroke="#263238" stroke-linecap="round" stroke-linejoin="round"/>
<path d="M12.1201 40.5705C12.9854 39.4587 14.1169 38.7832 15.3569 38.7832C18.0686 38.7832 20.2626 42.0027 20.2626 45.9766C20.2626 49.3564 18.6701 52.1939 16.5254 52.963" stroke="#263238" stroke-linecap="round" stroke-linejoin="round"/>
<path d="M11.0098 42.6323C11.1771 42.1599 11.3884 41.7044 11.6409 41.2715" stroke="#263238" stroke-linecap="round" stroke-linejoin="round"/>
<path d="M15.3564 53.1606C12.6447 53.1606 10.4532 49.9386 10.4532 45.9672C10.4508 45.117 10.5543 44.2699 10.7613 43.4453" stroke="#263238" stroke-linecap="round" stroke-linejoin="round"/>
<path d="M85.6459 39.8322C84.7806 38.7204 83.6491 38.0449 82.4091 38.0449C79.6974 38.0449 77.5059 41.2645 77.5059 45.2384C77.5059 48.6181 79.0959 51.4556 81.2406 52.2247" stroke="#263238" stroke-linecap="round" stroke-linejoin="round"/>
<path d="M86.7561 41.892C86.5887 41.4197 86.3774 40.9641 86.125 40.5312" stroke="#263238" stroke-linecap="round" stroke-linejoin="round"/>
<path d="M82.4102 52.4204C85.1219 52.4204 87.3159 49.1984 87.3159 45.227C87.3175 44.3767 87.2131 43.5296 87.0053 42.7051" stroke="#263238" stroke-linecap="round" stroke-linejoin="round"/>
<path d="M76.7715 21.2091C76.7715 21.2091 78.8053 18.2804 82.0815 19.2246C85.3577 20.1688 87.0464 22.3998 86.7974 24.7343C86.5484 27.0689 85.9543 29.8471 87.5912 30.4412C89.2281 31.0354 91.6612 30.1947 93.0146 32.0806C94.368 33.9665 94.9005 36.8951 92.9653 39.3751C91.0302 41.8551 86.7481 42.5034 83.5212 40.5707C80.2942 38.638 78.0115 36.1531 77.9622 32.5786C77.9129 29.004 78.9482 27.3671 78.7017 25.3309C78.4552 23.2946 77.9079 23.1467 77.9079 23.1467L76.7715 21.2091Z" fill="#263238" stroke="#263238" stroke-linecap="round" stroke-linejoin="round"/>
<path d="M81.5864 24.3008C82.395 26.0609 80.9627 29.8721 80.8469 31.3931C80.5141 35.5396 82.1731 39.1043 86.7337 39.8488C91.2943 40.5932 93.1161 36.8659 92.6206 35.0416C92.2681 33.7523 90.2984 34.1295 90.1332 35.8699C89.9681 37.6104 91.6247 36.6982 91.7085 36.363" stroke="white" stroke-width="0.75" stroke-linecap="round" stroke-linejoin="round"/>
<path d="M77.3613 23.4419C77.3613 23.4419 79.2004 22.52 80.8915 23.5578" stroke="white" stroke-width="0.75" stroke-linecap="round" stroke-linejoin="round"/>
<path d="M88.4023 37.2859C88.6799 37.2 88.9489 37.0886 89.206 36.9531" stroke="white" stroke-width="0.75" stroke-linecap="round" stroke-linejoin="round"/>
<path d="M76.7793 23.1097C76.7793 23.1097 79.4318 21.0365 82.4172 21.7834C85.4025 22.5304 85.5677 26.5905 84.4904 29.0779C83.4131 31.5653 82.9152 34.6345 84.7369 36.5401C85.0731 36.8935 85.4869 37.1639 85.9455 37.3299C86.4042 37.4959 86.8951 37.5529 87.3796 37.4966" stroke="white" stroke-width="0.75" stroke-linecap="round" stroke-linejoin="round"/>
<path d="M73.9418 32.081C73.9418 32.081 71.7083 31.6841 70.6162 32.2782C69.5242 32.8723 63.2207 37.5882 63.2207 37.5882L57.8613 33.5207V36.151C57.8613 36.151 61.5838 40.618 62.6759 40.9138C63.7679 41.2096 71.41 36.9941 71.41 36.9941C71.41 36.9941 71.1142 41.1135 71.6097 42.0059C72.1052 42.8983 74.4891 43.6452 76.4242 44.4883C78.3594 45.3314 80.3957 47.6659 81.5863 48.2108C82.777 48.7556 83.7212 48.6077 84.5643 46.2756C85.4074 43.9435 84.3646 42.4052 84.0713 41.7593C82.9023 39.591 81.5921 37.5018 80.1491 35.5052C78.4605 33.2224 73.9418 32.081 73.9418 32.081Z" fill="white"/>
<path d="M81.5371 45.9032C80.8272 45.0355 81.9316 43.9311 82.7993 43.2236C83.6671 42.5161 78.9364 43.0658 78.6997 42.6714C78.463 42.2769 79.7252 41.567 80.4253 40.9457C81.1255 40.3245 78.3423 41.6385 76.7276 40.6992C75.1128 39.76 74.1268 40.078 74.1268 40.078C74.1268 40.078 75.8524 37.7139 76.2542 36.2939C76.6561 34.874 76.0077 34.6398 76.0077 34.6398L75.5443 32.606C74.6149 32.2633 73.932 32.0908 73.932 32.0908C73.932 32.0908 71.6986 31.6939 70.6065 32.288C69.5144 32.8821 63.2109 37.598 63.2109 37.598L57.8516 33.5304V36.1608C57.8516 36.1608 61.574 40.6277 62.6661 40.9236C63.7582 41.2194 71.4003 37.0039 71.4003 37.0039C71.4003 37.0039 71.1044 41.1232 71.5999 42.0156C72.0954 42.908 74.4793 43.655 76.4145 44.4981C78.3496 45.3412 80.3859 47.6757 81.5766 48.2205C82.5454 48.6643 83.3515 48.6495 84.0714 47.3725C83.3071 46.8819 81.9932 46.4554 81.5371 45.9032Z" fill="#92E3A9"/>
<path opacity="0.5" d="M81.5371 45.9032C80.8272 45.0355 81.9316 43.9311 82.7993 43.2236C83.6671 42.5161 78.9364 43.0658 78.6997 42.6714C78.463 42.2769 79.7252 41.567 80.4253 40.9457C81.1255 40.3245 78.3423 41.6385 76.7276 40.6992C75.1128 39.76 74.1268 40.078 74.1268 40.078C74.1268 40.078 75.8524 37.7139 76.2542 36.2939C76.6561 34.874 76.0077 34.6398 76.0077 34.6398L75.5443 32.606C74.6149 32.2633 73.932 32.0908 73.932 32.0908C73.932 32.0908 71.6986 31.6939 70.6065 32.288C69.5144 32.8821 63.2109 37.598 63.2109 37.598L57.8516 33.5304V36.1608C57.8516 36.1608 61.574 40.6277 62.6661 40.9236C63.7582 41.2194 71.4003 37.0039 71.4003 37.0039C71.4003 37.0039 71.1044 41.1232 71.5999 42.0156C72.0954 42.908 74.4793 43.655 76.4145 44.4981C78.3496 45.3412 80.3859 47.6757 81.5766 48.2205C82.5454 48.6643 83.3515 48.6495 84.0714 47.3725C83.3071 46.8819 81.9932 46.4554 81.5371 45.9032Z" fill="white"/>
<path d="M73.9418 32.081C73.9418 32.081 71.7083 31.6841 70.6162 32.2782C69.5242 32.8723 63.2207 37.5882 63.2207 37.5882L57.8613 33.5207V36.151C57.8613 36.151 61.5838 40.618 62.6759 40.9138C63.7679 41.2096 71.41 36.9941 71.41 36.9941C71.41 36.9941 71.1142 41.1135 71.6097 42.0059C72.1052 42.8983 74.4891 43.6452 76.4242 44.4883C78.3594 45.3314 80.3957 47.6659 81.5864 48.2108C82.777 48.7556 83.7212 48.6077 84.5643 46.2756C85.4074 43.9435 84.3646 42.4052 84.0713 41.7594C82.9023 39.591 81.5921 37.5018 80.1491 35.5052C78.4605 33.2224 73.9418 32.081 73.9418 32.081Z" stroke="#263238" stroke-linecap="round" stroke-linejoin="round"/>
<path d="M78.3496 41.6284C78.3496 41.6284 80.3218 41.5052 81.6776 40.7656" stroke="#263238" stroke-linecap="round" stroke-linejoin="round"/>
<path d="M77.7324 42.1211C77.7324 42.1211 80.4441 42.4909 82.5395 42.1211" stroke="#263238" stroke-linecap="round" stroke-linejoin="round"/>
<path d="M68.9817 35.2188L71.4099 36.9937L67.1328 35.835" stroke="#263238" stroke-linecap="round" stroke-linejoin="round"/>
<path d="M73.0668 32.5693C73.0668 32.5693 72.6452 34.5833 73.3133 35.9244C73.9813 37.2655 74.9896 37.6032 75.7464 36.5974C76.5032 35.5916 76.6684 33.1461 75.3273 32.4855C73.9863 31.8248 73.3182 32.234 73.0668 32.5693Z" fill="#263238" stroke="#263238" stroke-linecap="round" stroke-linejoin="round"/>
<path d="M24.0088 30.0533C24.0088 30.0533 22.7762 29.617 20.4762 31.8406C18.1762 34.0642 15.8958 36.278 14.4562 38.7752C13.0165 41.2724 12.3189 44.9382 12.1463 47.1569C12.1128 47.7702 12.2281 48.3825 12.4825 48.9416C12.7368 49.5006 13.1226 49.9899 13.6069 50.3677C14.0912 50.7454 14.6597 51.0005 15.2638 51.111C15.868 51.2216 16.49 51.1844 17.0767 51.0026C18.8023 50.4947 24.5635 42.7097 25.4781 41.4869C26.3926 40.2642 27.3097 38.7407 27.3097 38.7407C27.3097 38.7407 32.107 43.2323 33.8523 44.0162C35.5977 44.8001 38.3587 44.2677 38.3587 44.2677L38.4893 41.3094C38.4893 41.3094 35.9157 40.8731 35.6987 40.7424C35.4818 40.6118 31.7742 36.4259 29.8538 34.1135C27.9334 31.8012 26.6268 30.364 25.6629 30.0139C25.3989 29.9081 25.1162 29.8571 24.8318 29.8639C24.5475 29.8707 24.2675 29.9351 24.0088 30.0533Z" fill="white"/>
<path d="M29.8522 34.1101C28.4594 32.4338 27.387 31.2184 26.5415 30.543L26.3591 30.5676C23.6819 31.0754 22.1682 35.8505 22.1682 35.8505C22.1043 36.989 21.9833 38.1236 21.8058 39.25C21.5889 40.2632 19.491 37.1521 19.491 37.9484C19.491 38.7447 21.0096 40.1917 21.2167 40.4802C21.4237 40.7686 20.5659 40.2632 20.132 40.1202C19.6981 39.9773 18.468 43.7367 18.0341 44.459C17.6002 45.1813 12.6797 46.9932 13.0421 47.4986C13.4045 48.0039 16.2246 46.8477 16.2246 46.8477C16.2246 46.8477 15.4999 47.7895 13.8359 48.6572C13.4335 48.8658 13.0882 49.1696 12.8301 49.5422C13.2865 50.2123 13.9479 50.7164 14.7151 50.9786C15.4823 51.2409 16.3139 51.2472 17.085 50.9967C18.8106 50.4888 24.5718 42.7038 25.4864 41.481C26.401 40.2583 27.318 38.7348 27.318 38.7348C27.318 38.7348 32.1153 43.2264 33.8606 44.0103C35.606 44.7942 38.3596 44.2692 38.3596 44.2692L38.4903 41.3109C38.4903 41.3109 35.9166 40.8746 35.6997 40.7439C35.4827 40.6133 31.7726 36.4225 29.8522 34.1101Z" fill="#92E3A9"/>
<path opacity="0.5" d="M29.8522 34.1101C28.4594 32.4338 27.387 31.2184 26.5415 30.543L26.3591 30.5676C23.6819 31.0754 22.1682 35.8505 22.1682 35.8505C22.1043 36.989 21.9833 38.1236 21.8058 39.25C21.5889 40.2632 19.491 37.1521 19.491 37.9484C19.491 38.7447 21.0096 40.1917 21.2167 40.4802C21.4237 40.7686 20.5659 40.2632 20.132 40.1202C19.6981 39.9773 18.468 43.7367 18.0341 44.459C17.6002 45.1813 12.6797 46.9932 13.0421 47.4986C13.4045 48.0039 16.2246 46.8477 16.2246 46.8477C16.2246 46.8477 15.4999 47.7895 13.8359 48.6572C13.4335 48.8658 13.0882 49.1696 12.8301 49.5422C13.2865 50.2123 13.9479 50.7164 14.7151 50.9786C15.4823 51.2409 16.3139 51.2472 17.085 50.9967C18.8106 50.4888 24.5718 42.7038 25.4864 41.481C26.401 40.2583 27.318 38.7348 27.318 38.7348C27.318 38.7348 32.1153 43.2264 33.8606 44.0103C35.606 44.7942 38.3596 44.2692 38.3596 44.2692L38.4903 41.3109C38.4903 41.3109 35.9166 40.8746 35.6997 40.7439C35.4827 40.6133 31.7726 36.4225 29.8522 34.1101Z" fill="white"/>
<path d="M24.0088 30.0533C24.0088 30.0533 22.7762 29.617 20.4762 31.8406C18.1762 34.0642 15.8958 36.278 14.4562 38.7752C13.0165 41.2724 12.3189 44.9382 12.1463 47.1569C12.1128 47.7702 12.2281 48.3825 12.4825 48.9416C12.7368 49.5006 13.1226 49.9899 13.6069 50.3677C14.0912 50.7454 14.6597 51.0005 15.2638 51.111C15.868 51.2216 16.49 51.1844 17.0767 51.0026C18.8023 50.4947 24.5635 42.7097 25.4781 41.4869C26.3926 40.2642 27.3097 38.7407 27.3097 38.7407C27.3097 38.7407 32.107 43.2323 33.8523 44.0162C35.5977 44.8001 38.3587 44.2677 38.3587 44.2677L38.4893 41.3094C38.4893 41.3094 35.9157 40.8731 35.6987 40.7424C35.4818 40.6118 31.7742 36.4259 29.8538 34.1135C27.9334 31.8012 26.6268 30.364 25.6629 30.0139C25.3989 29.9081 25.1162 29.8571 24.8318 29.8639C24.5475 29.8707 24.2675 29.9351 24.0088 30.0533V30.0533Z" stroke="#263238" stroke-linecap="round" stroke-linejoin="round"/>
<path d="M14.2539 44.0942C14.6514 44.2682 15.087 44.337 15.5188 44.2938C15.9506 44.2506 16.3639 44.097 16.7191 43.8477" stroke="#263238" stroke-linecap="round" stroke-linejoin="round"/>
<path d="M13.0215 45.9426C13.0215 45.9426 16.2262 46.0659 17.7054 44.0938" stroke="#263238" stroke-linecap="round" stroke-linejoin="round"/>
<path d="M30.4013 37.0664L27.3223 38.7329L31.2641 38.299" stroke="#263238" stroke-linecap="round" stroke-linejoin="round"/>
<path d="M23.5139 29.6426C23.5139 29.6426 21.2534 30.8135 21.1696 31.7355C21.0857 32.6575 20.9428 34.1613 21.527 35.8351C22.1113 37.509 23.1787 38.6824 23.6816 38.5986C24.1845 38.5148 25.6069 37.0924 25.7745 33.826C25.9422 30.5596 24.9364 29.6426 23.5139 29.6426Z" fill="#263238" stroke="#263238" stroke-linecap="round" stroke-linejoin="round"/>
<path d="M61.7961 26.3438H36.7744V52.3515H61.7961V26.3438Z" fill="#263238" stroke="#263238" stroke-linecap="round" stroke-linejoin="round"/>
<path d="M60.7286 27.4531H37.8418V51.2422H60.7286V27.4531Z" fill="white" stroke="#263238" stroke-linecap="round" stroke-linejoin="round"/>
<path d="M60.7286 28.459C56.9421 30.0762 57.8049 34.4321 54.8935 37.5605C51.5655 41.135 47.6212 37.9303 41.828 41.5048C40.1464 42.5681 38.7722 44.0528 37.8418 45.8115V51.2349H60.7286V28.459Z" fill="#92E3A9" stroke="#263238" stroke-linecap="round" stroke-linejoin="round"/>
<path d="M42.505 35.4651C44.1047 35.4651 45.4016 34.1682 45.4016 32.5685C45.4016 30.9687 44.1047 29.6719 42.505 29.6719C40.9053 29.6719 39.6084 30.9687 39.6084 32.5685C39.6084 34.1682 40.9053 35.4651 42.505 35.4651Z" fill="#92E3A9" stroke="#263238" stroke-linecap="round" stroke-linejoin="round"/>
<path d="M51.8959 25.9419C51.8959 25.9419 51.462 25.6806 51.1982 26.0282C50.9344 26.3758 50.5893 26.9452 50.72 27.2608C50.8506 27.5763 51.287 26.9995 51.5483 26.6938C51.6536 26.5981 51.7386 26.4823 51.7984 26.3531C51.8581 26.224 51.8912 26.0841 51.8959 25.9419Z" fill="white" stroke="#263238" stroke-linecap="round" stroke-linejoin="round"/>
<path d="M52.596 25.8104C52.5479 25.7577 52.4872 25.7182 52.4196 25.6955C52.3519 25.6729 52.2797 25.6679 52.2096 25.6809C52.1395 25.694 52.0739 25.7248 52.019 25.7703C51.9641 25.8158 51.9217 25.8746 51.8959 25.941C51.6345 26.4637 51.7652 27.6839 51.9846 27.8146C52.204 27.9452 52.3322 27.9033 52.5072 27.2476C52.6823 26.5918 52.7685 26.333 52.596 25.8104Z" fill="white" stroke="#263238" stroke-linecap="round" stroke-linejoin="round"/>
<path d="M53.2937 25.7792C53.2455 25.7271 53.185 25.6881 53.1176 25.6658C53.0503 25.6435 52.9784 25.6386 52.9087 25.6517C52.839 25.6647 52.7738 25.6953 52.7191 25.7404C52.6644 25.7856 52.622 25.8439 52.596 25.9099C52.3322 26.4325 52.4629 27.6552 52.6823 27.7859C52.9017 27.9165 53.0299 27.8721 53.2049 27.2189C53.3799 26.5656 53.4662 26.2895 53.2937 25.7792Z" fill="white" stroke="#263238" stroke-linecap="round" stroke-linejoin="round"/>
<path d="M53.9912 25.7226C53.9431 25.6705 53.8825 25.6314 53.8152 25.6091C53.7479 25.5868 53.676 25.582 53.6063 25.5951C53.5366 25.6081 53.4713 25.6386 53.4166 25.6838C53.3619 25.7289 53.3196 25.7872 53.2936 25.8532C53.0298 26.3783 53.1629 27.5986 53.3798 27.7292C53.5968 27.8599 53.7274 27.8155 53.9025 27.1622C54.0775 26.509 54.1638 26.2476 53.9912 25.7226Z" fill="white" stroke="#263238" stroke-linecap="round" stroke-linejoin="round"/>
<path d="M55.4277 53.2256L56.3251 52.5156" stroke="#263238" stroke-linecap="round" stroke-linejoin="round"/>
<path d="M24.707 28.7044C24.707 28.7044 23.79 29.794 23.1367 30.4473C22.4834 31.1006 22.1777 31.1031 22.1777 32.3677C22.1777 33.6323 22.7151 36.8938 23.4991 37.0688C24.283 37.2439 27.4976 32.4984 27.4976 32.4984L26.3636 28.1374C26.3636 28.1374 25.1434 28.0931 24.707 28.7044Z" fill="white"/>
<path d="M25.3459 32.3053C25.0723 34.2134 24.2242 35.414 23.0977 36.6959C23.179 36.8668 23.3228 37 23.4995 37.0681C24.2859 37.2431 27.498 32.4976 27.498 32.4976L26.7363 29.5641L26.1422 29.0488C25.7544 30.1007 25.4873 31.1932 25.3459 32.3053Z" fill="#92E3A9"/>
<path opacity="0.5" d="M25.3459 32.3053C25.0723 34.2134 24.2242 35.414 23.0977 36.6959C23.179 36.8668 23.3228 37 23.4995 37.0681C24.2859 37.2431 27.498 32.4976 27.498 32.4976L26.7363 29.5641L26.1422 29.0488C25.7544 30.1007 25.4873 31.1932 25.3459 32.3053Z" fill="white"/>
<path d="M24.707 28.7044C24.707 28.7044 23.79 29.794 23.1367 30.4473C22.4834 31.1006 22.1777 31.1031 22.1777 32.3677C22.1777 33.6323 22.7151 36.8938 23.4991 37.0688C24.283 37.2439 27.4976 32.4984 27.4976 32.4984L26.3636 28.1374C26.3636 28.1374 25.1434 28.0931 24.707 28.7044Z" stroke="#263238" stroke-linecap="round" stroke-linejoin="round"/>
<path d="M32.1961 25.4733C32.4032 25.996 32.4426 26.595 32.4426 27.3494C32.4426 28.222 32.1813 28.9641 32.312 29.356C32.4426 29.748 33.0959 30.2731 32.9233 30.665C32.7508 31.057 31.745 31.2739 31.745 31.4046C31.4417 32.2508 31.0621 33.0676 30.611 33.8451C30.1747 34.5428 29.1319 34.2371 27.601 33.6282C26.0701 33.0193 25.8581 31.8828 25.6831 31.1408C25.508 30.3988 25.8137 27.7832 25.9 25.9072C25.9468 24.9211 26.1465 24.1988 27.1326 23.7576C27.7707 23.488 28.4662 23.3831 29.1554 23.4524C29.8446 23.5218 30.5054 23.7632 31.0769 24.1545C31.5774 24.4678 31.9684 24.9286 32.1961 25.4733Z" fill="white"/>
<path d="M32.4254 27.3496C32.4254 26.5952 32.3958 25.9962 32.1789 25.4736C31.9436 24.9258 31.5428 24.4655 31.0326 24.1572C30.1147 23.5382 28.9904 23.3045 27.9018 23.5063L28.0842 25.2123C28.862 25.3835 29.5994 25.7033 30.2561 26.154C31.2693 26.8787 31.3506 27.6922 31.1287 28.9865C30.9069 30.2807 31.4862 30.7121 30.9069 32.0137C30.3276 33.3153 30.399 33.6777 29.1812 33.6777C27.9634 33.6777 26.647 32.5216 26.0702 31.7253C25.9124 31.5108 25.7867 31.3432 25.6807 31.2051C25.7399 31.4948 25.8223 31.7792 25.9272 32.0556C26.0036 32.2085 26.0874 32.3662 26.1737 32.5314C26.512 33.0382 27.0035 33.4235 27.5764 33.6309C29.1048 34.2398 30.1501 34.5455 30.5864 33.8478C31.0375 33.0703 31.4171 32.2535 31.7204 31.4073C31.7204 31.2742 32.7237 31.0572 32.8987 30.6677C33.0738 30.2782 32.418 29.7507 32.2874 29.3587C32.1567 28.9667 32.4254 28.2223 32.4254 27.3496Z" fill="#92E3A9"/>
<path opacity="0.5" d="M32.4254 27.3496C32.4254 26.5952 32.3958 25.9962 32.1789 25.4736C31.9436 24.9258 31.5428 24.4655 31.0326 24.1572C30.1147 23.5382 28.9904 23.3045 27.9018 23.5063L28.0842 25.2123C28.862 25.3835 29.5994 25.7033 30.2561 26.154C31.2693 26.8787 31.3506 27.6922 31.1287 28.9865C30.9069 30.2807 31.4862 30.7121 30.9069 32.0137C30.3276 33.3153 30.399 33.6777 29.1812 33.6777C27.9634 33.6777 26.647 32.5216 26.0702 31.7253C25.9124 31.5108 25.7867 31.3432 25.6807 31.2051C25.7399 31.4948 25.8223 31.7792 25.9272 32.0556C26.0036 32.2085 26.0874 32.3662 26.1737 32.5314C26.512 33.0382 27.0035 33.4235 27.5764 33.6309C29.1048 34.2398 30.1501 34.5455 30.5864 33.8478C31.0375 33.0703 31.4171 32.2535 31.7204 31.4073C31.7204 31.2742 32.7237 31.0572 32.8987 30.6677C33.0738 30.2782 32.418 29.7507 32.2874 29.3587C32.1567 28.9667 32.4254 28.2223 32.4254 27.3496Z" fill="white"/>
<path d="M32.1961 25.4733C32.4032 25.996 32.4426 26.595 32.4426 27.3494C32.4426 28.222 32.1813 28.9641 32.312 29.356C32.4426 29.748 33.0959 30.2731 32.9233 30.665C32.7508 31.057 31.745 31.2739 31.745 31.4046C31.4417 32.2508 31.0621 33.0676 30.611 33.8451C30.1747 34.5428 29.1319 34.2371 27.601 33.6282C26.0701 33.0193 25.8581 31.8828 25.6831 31.1408C25.508 30.3988 25.8137 27.7832 25.9 25.9072C25.9468 24.9211 26.1465 24.1988 27.1326 23.7576C27.7707 23.488 28.4662 23.3831 29.1554 23.4524C29.8446 23.5218 30.5054 23.7632 31.0769 24.1545C31.5774 24.4678 31.9684 24.9286 32.1961 25.4733V25.4733Z" stroke="#263238" stroke-linecap="round" stroke-linejoin="round"/>
<path d="M31.3531 28.9987C31.3359 29.2995 31.2249 29.5361 31.1066 29.5287C30.9883 29.5213 30.9069 29.2822 30.9242 28.9716C30.9414 28.661 31.0524 28.4342 31.1707 28.4416C31.289 28.449 31.3704 28.698 31.3531 28.9987Z" fill="#222220"/>
<path d="M29.0225 30.8828C29.0225 30.8828 29.1531 31.6692 30.2008 31.7555" stroke="#263238" stroke-linecap="round" stroke-linejoin="round"/>
<path d="M30.4707 27.8319C30.4707 27.8319 31.0377 27.1786 31.7797 27.5706" stroke="#263238" stroke-linecap="round" stroke-linejoin="round"/>
<path d="M25.7109 28.0911C25.7109 28.0911 26.4085 28.4411 26.5392 27.9161C26.6698 27.391 26.6033 27.0902 26.9509 26.9596C27.2985 26.8289 28.5458 26.6958 28.3708 25.9094C28.1958 25.123 27.863 25.0022 28.43 24.7409C28.997 24.4796 29.9855 25.0293 31.5115 25.727C33.0374 26.4246 34.519 25.727 35.0416 24.8198C35.5642 23.9126 35.261 21.122 33.2544 21.122C31.9281 21.122 31.6051 21.615 31.3019 21.7506C30.9987 21.8862 28.674 20.5525 26.1867 21.0751C23.6993 21.5978 23.1372 25.1279 23.4749 26.2175C23.8127 27.3072 24.0962 29.4001 25.7109 28.0911Z" fill="#263238" stroke="#263238" stroke-linecap="round" stroke-linejoin="round"/>
<path d="M33.7044 24.7353C33.6004 24.8674 33.4694 24.9757 33.3202 25.0531C33.171 25.1305 33.007 25.1751 32.8391 25.184C31.2639 25.3492 29.6886 24.0229 28.1972 23.5249C26.7057 23.027 24.2997 23.6901 23.5527 25.184C23.5527 25.184 24.879 23.9391 26.9522 24.8512" stroke="white" stroke-width="0.75" stroke-linecap="round" stroke-linejoin="round"/>
<path d="M33.9219 23.0254C33.9973 23.3585 34.0149 23.702 33.9736 24.041" stroke="white" stroke-width="0.75" stroke-linecap="round" stroke-linejoin="round"/>
<path d="M26.0585 28.6586C26.0585 28.6586 25.6665 26.827 25.1439 26.5657C24.6213 26.3044 23.8792 26.3463 23.7905 27.6997C23.7017 29.0531 24.4462 29.7064 24.8382 29.7926C25.2302 29.8789 25.8415 29.5313 25.8415 29.5313" fill="white"/>
<path d="M26.0585 28.6586C26.0585 28.6586 25.6665 26.827 25.1439 26.5657C24.6213 26.3044 23.8792 26.3463 23.7905 27.6997C23.7017 29.0531 24.4462 29.7064 24.8382 29.7926C25.2302 29.8789 25.8415 29.5313 25.8415 29.5313" stroke="#263238" stroke-linecap="round" stroke-linejoin="round"/>
<path d="M39.2295 51.9113L41.4087 50.341C41.6786 50.1332 42.0002 50.0032 42.3387 49.9649C42.6772 49.9267 43.0196 49.9817 43.3291 50.124C43.9758 50.3483 44.6342 50.5376 45.3013 50.691C45.4319 50.691 45.3456 50.9967 44.9512 51.1273C44.5568 51.258 43.9479 51.1717 43.514 51.1273C43.2263 51.1092 42.9391 51.1697 42.6832 51.3024C42.6832 51.3024 44.6899 51.65 45.2125 51.825C45.7351 52 46.4796 52.3057 46.2602 52.5226C46.0789 52.7272 45.8562 52.8911 45.6069 53.0034C45.4319 53.0453 45.1139 52.8283 44.5592 53.0896C44.0046 53.351 42.8139 53.701 42.2469 53.701C41.6799 53.701 39.2394 53.0034 39.2394 53.0034L39.2295 51.9113Z" fill="white" stroke="#263238" stroke-linecap="round" stroke-linejoin="round"/>
<path d="M14.6758 41.5244C14.6758 41.5244 19.8527 50.9439 21.0434 52.8643C22.2341 54.7847 23.442 54.9573 24.1397 54.9573C24.8373 54.9573 39.2291 52.9851 39.2291 52.9851V51.9103C39.2291 51.9103 32.08 51.5627 30.0265 51.1264C27.973 50.69 24.9236 50.515 24.9236 50.515C24.9236 50.515 22.0886 42.2221 20.9546 40.6074C20.2873 39.6513 19.2958 38.9698 18.164 38.6895" fill="white"/>
<path d="M24.9235 50.5079C24.9235 50.5079 22.0885 42.2224 20.9545 40.6077C20.8855 40.5091 20.814 40.4154 20.7401 40.3242C20.9866 41.2339 21.6818 43.6991 22.0885 45.0377C22.5964 46.7017 23.2472 47.5719 22.8133 47.7149C22.3794 47.8579 19.3398 44.5323 19.7737 45.8339C20.2076 47.1355 23.898 49.8867 23.898 50.1751C23.898 50.4636 22.234 50.609 23.0302 51.0429C23.8265 51.4768 25.2736 51.3338 25.2736 51.3338C25.2736 51.3338 23.2472 52.347 23.898 52.5664C24.5488 52.7858 26.4297 51.4077 26.7921 51.4077C27.1027 51.4077 34.7448 52.5861 37.7992 53.1901L39.229 52.9978V51.9106C39.229 51.9106 32.08 51.563 30.0264 51.1267C27.9729 50.6904 24.9235 50.5079 24.9235 50.5079Z" fill="#92E3A9"/>
<path opacity="0.5" d="M24.9235 50.5079C24.9235 50.5079 22.0885 42.2224 20.9545 40.6077C20.8855 40.5091 20.814 40.4154 20.7401 40.3242C20.9866 41.2339 21.6818 43.6991 22.0885 45.0377C22.5964 46.7017 23.2472 47.5719 22.8133 47.7149C22.3794 47.8579 19.3398 44.5323 19.7737 45.8339C20.2076 47.1355 23.898 49.8867 23.898 50.1751C23.898 50.4636 22.234 50.609 23.0302 51.0429C23.8265 51.4768 25.2736 51.3338 25.2736 51.3338C25.2736 51.3338 23.2472 52.347 23.898 52.5664C24.5488 52.7858 26.4297 51.4077 26.7921 51.4077C27.1027 51.4077 34.7448 52.5861 37.7992 53.1901L39.229 52.9978V51.9106C39.229 51.9106 32.08 51.563 30.0264 51.1267C27.9729 50.6904 24.9235 50.5079 24.9235 50.5079Z" fill="white"/>
<path d="M14.6758 41.5244C14.6758 41.5244 19.8527 50.9439 21.0434 52.8643C22.2341 54.7847 23.442 54.9573 24.1397 54.9573C24.8373 54.9573 39.2291 52.9851 39.2291 52.9851V51.9103C39.2291 51.9103 32.08 51.5627 30.0265 51.1264C27.973 50.69 24.9236 50.515 24.9236 50.515C24.9236 50.515 22.0886 42.2221 20.9546 40.6074C20.2873 39.6513 19.2958 38.9698 18.164 38.6895" stroke="#263238" stroke-linecap="round" stroke-linejoin="round"/>
<path d="M75.8797 37.9355L68.7799 46.0707L58.3571 49.199C58.3571 49.199 55.5788 48.9525 54.9329 48.9007C54.2871 48.849 53.7915 49.3469 53.3946 49.7438C52.9977 50.1407 52.0043 50.4834 52.204 50.7866C52.4036 51.0898 52.7488 50.937 53.3946 50.7373C54.0405 50.5376 54.4867 50.439 54.4867 50.439C54.4867 50.439 52.3519 52.426 51.8071 52.9708C51.2623 53.5156 51.3584 53.8139 51.706 53.8139C52.0536 53.8139 53.9395 52.0882 53.9395 52.0882C53.6028 52.4812 53.2884 52.8927 52.9978 53.3208C52.6502 53.8656 52.1522 54.3069 52.5047 54.4129C52.8572 54.5189 54.292 53.1803 54.292 53.1803L54.9872 52.7316C54.9872 52.7316 53.8458 54.0234 54.0948 54.1713C54.3437 54.3192 55.4334 53.2296 55.4334 53.2296C55.4334 53.2296 57.2206 52.633 57.7161 52.0389C58.2116 51.4448 58.5124 51.0528 58.5124 51.0528C58.5124 51.0528 64.1207 50.0101 66.2038 49.6625C68.2869 49.3149 70.7225 49.0166 71.6149 48.2228C72.5073 47.429 79.5553 40.7286 79.9029 39.8411" fill="white"/>
<path d="M71.6025 44.3255C71.356 44.2738 72.8351 41.8603 73.9124 40.1914L68.7799 46.0758L58.3571 49.1992L56.168 49.0069C56.2049 49.2313 56.2296 49.3669 56.2296 49.3669L57.1762 51.0235C57.1762 51.0235 68.0551 47.4736 68.5285 47.4736C69.0018 47.4736 69.0018 47.6314 69.554 47.7891C70.1062 47.9469 69.6329 47.158 69.6329 47.158C70.3814 47.069 71.12 46.9105 71.8392 46.6847C72.707 46.3692 69.7906 46.4382 70.2639 46.2114C70.7373 45.9846 75.0735 43.5317 76.0177 41.8751C76.9619 40.2185 71.997 44.4044 71.6025 44.3255Z" fill="#92E3A9"/>
<path opacity="0.5" d="M71.6025 44.3255C71.356 44.2738 72.8351 41.8603 73.9124 40.1914L68.7799 46.0758L58.3571 49.1992L56.168 49.0069C56.2049 49.2313 56.2296 49.3669 56.2296 49.3669L57.1762 51.0235C57.1762 51.0235 68.0551 47.4736 68.5285 47.4736C69.0018 47.4736 69.0018 47.6314 69.554 47.7891C70.1062 47.9469 69.6329 47.158 69.6329 47.158C70.3814 47.069 71.12 46.9105 71.8392 46.6847C72.707 46.3692 69.7906 46.4382 70.2639 46.2114C70.7373 45.9846 75.0735 43.5317 76.0177 41.8751C76.9619 40.2185 71.997 44.4044 71.6025 44.3255Z" fill="white"/>
<path d="M75.8797 37.9355L68.7799 46.0707L58.3571 49.199C58.3571 49.199 55.5788 48.9525 54.9329 48.9007C54.2871 48.849 53.7915 49.3469 53.3946 49.7438C52.9977 50.1407 52.0043 50.4834 52.204 50.7866C52.4036 51.0898 52.7488 50.937 53.3946 50.7373C54.0405 50.5376 54.4867 50.439 54.4867 50.439C54.4867 50.439 52.3519 52.426 51.8071 52.9708C51.2623 53.5156 51.3584 53.8139 51.706 53.8139C52.0536 53.8139 53.9395 52.0882 53.9395 52.0882C53.6028 52.4812 53.2884 52.8927 52.9978 53.3208C52.6502 53.8656 52.1522 54.3069 52.5047 54.4129C52.8572 54.5189 54.292 53.1803 54.292 53.1803L54.9872 52.7316C54.9872 52.7316 53.8458 54.0234 54.0948 54.1713C54.3437 54.3192 55.4334 53.2296 55.4334 53.2296C55.4334 53.2296 57.2206 52.633 57.7161 52.0389C58.2116 51.4448 58.5124 51.0528 58.5124 51.0528C58.5124 51.0528 64.1207 50.0101 66.2038 49.6625C68.2869 49.3149 70.7225 49.0166 71.6149 48.2228C72.5073 47.429 79.5553 40.7286 79.9029 39.8411" stroke="#263238" stroke-linecap="round" stroke-linejoin="round"/>
<path d="M53.3976 49.7496C53.0007 50.1465 52.0072 50.4892 52.2069 50.7924C52.4066 51.0956 52.7517 50.9428 53.3976 50.7431C54.0435 50.5434 54.4897 50.4448 54.4897 50.4448C54.4897 50.4448 52.3548 52.4317 51.81 52.9765C51.2652 53.5214 51.3613 53.8196 51.7089 53.8196C52.0565 53.8196 53.9424 52.094 53.9424 52.094C53.6057 52.487 53.2914 52.8985 53.0007 53.3266C52.6531 53.8714 52.1551 54.3127 52.5076 54.4187C52.8602 54.5247 54.2949 53.1861 54.2949 53.1861L54.9901 52.7374C54.9901 52.7374 53.8487 54.0292 54.0977 54.1771C54.3467 54.325 55.4363 53.2354 55.4363 53.2354C55.4363 53.2354 57.2236 52.6388 57.7191 52.0447C58.2146 51.4506 58.5153 51.0586 58.5153 51.0586L58.3649 49.2221C58.3649 49.2221 55.5867 48.9755 54.9408 48.9238C54.2949 48.872 53.792 49.3527 53.3976 49.7496Z" fill="white" stroke="#263238" stroke-linecap="round" stroke-linejoin="round"/>
<path d="M68.484 23.7902C68.127 24.5839 67.9729 25.4539 68.0353 26.322C68.1857 27.6137 68.235 28.2572 67.986 28.6047C67.737 28.9523 67.3426 28.8044 67.3919 29.4503C67.4412 30.0962 68.235 30.3427 68.235 30.3427C68.235 30.3427 69.3271 32.4776 69.7141 32.9238C70.1012 33.37 70.6558 33.1703 71.1045 32.9731C71.5532 32.7759 72.4431 32.3272 72.4431 32.3272C72.4431 32.3272 73.5845 35.3051 74.1317 36.0003C74.679 36.6955 75.1178 35.7538 75.2731 34.9575C75.4284 34.1613 75.5197 32.3765 75.2731 31.7824C75.0266 31.1883 74.329 29.6475 74.329 29.6475C74.329 29.6475 75.7686 29.4503 76.6635 27.5127C77.5584 25.575 75.6774 23.0457 72.9411 22.4516C70.2047 21.8575 68.7798 23.095 68.484 23.7902Z" fill="white"/>
<path d="M73.6529 29.9705C73.6529 29.9705 73.1796 31.3091 72.9429 31.6247C72.7063 31.9402 70.7243 32.7291 69.9477 32.2558C69.1712 31.7825 68.7644 30.365 68.8433 29.1817C68.9222 27.9984 68.4489 26.6573 69.4744 26.1051C70.4999 25.5529 72.3907 25.9473 72.3907 25.9473L74.5207 25.0821L69.79 23.6621C69.79 23.6621 69.1046 23.9086 68.296 24.2636C68.065 24.9211 67.9759 25.6202 68.0347 26.3147C68.1851 27.6064 68.2344 28.2498 67.9854 28.5974C67.7364 28.945 67.3396 28.7971 67.3913 29.443C67.4431 30.0889 68.2344 30.3354 68.2344 30.3354C68.2344 30.3354 69.3265 32.4702 69.7135 32.9164C70.1006 33.3626 70.6552 33.163 71.1039 32.9657C71.5526 32.7685 72.4425 32.3199 72.4425 32.3199C72.4425 32.3199 73.5839 35.2978 74.1312 35.993C74.39 36.3233 74.6242 36.2814 74.8165 36.067C74.4689 34.0554 73.6529 29.9705 73.6529 29.9705Z" fill="#92E3A9"/>
<path opacity="0.5" d="M73.6529 29.9705C73.6529 29.9705 73.1796 31.3091 72.9429 31.6247C72.7063 31.9402 70.7243 32.7291 69.9477 32.2558C69.1712 31.7825 68.7644 30.365 68.8433 29.1817C68.9222 27.9984 68.4489 26.6573 69.4744 26.1051C70.4999 25.5529 72.3907 25.9473 72.3907 25.9473L74.5207 25.0821L69.79 23.6621C69.79 23.6621 69.1046 23.9086 68.296 24.2636C68.065 24.9211 67.9759 25.6202 68.0347 26.3147C68.1851 27.6064 68.2344 28.2498 67.9854 28.5974C67.7364 28.945 67.3396 28.7971 67.3913 29.443C67.4431 30.0889 68.2344 30.3354 68.2344 30.3354C68.2344 30.3354 69.3265 32.4702 69.7135 32.9164C70.1006 33.3626 70.6552 33.163 71.1039 32.9657C71.5526 32.7685 72.4425 32.3199 72.4425 32.3199C72.4425 32.3199 73.5839 35.2978 74.1312 35.993C74.39 36.3233 74.6242 36.2814 74.8165 36.067C74.4689 34.0554 73.6529 29.9705 73.6529 29.9705Z" fill="white"/>
<path d="M68.484 23.7902C68.127 24.5839 67.9729 25.4539 68.0353 26.322C68.1857 27.6137 68.235 28.2572 67.986 28.6047C67.737 28.9523 67.3426 28.8044 67.3919 29.4503C67.4412 30.0962 68.235 30.3427 68.235 30.3427C68.235 30.3427 69.3271 32.4776 69.7141 32.9238C70.1012 33.37 70.6558 33.1703 71.1045 32.9731C71.5532 32.7759 72.4431 32.3272 72.4431 32.3272C72.4431 32.3272 73.5845 35.3051 74.1317 36.0003C74.679 36.6955 75.1178 35.7538 75.2731 34.9575C75.4284 34.1613 75.5197 32.3765 75.2731 31.7824C75.0266 31.1883 74.329 29.6475 74.329 29.6475C74.329 29.6475 75.7686 29.4503 76.6635 27.5127C77.5584 25.575 75.6774 23.0457 72.9411 22.4516C70.2047 21.8575 68.7798 23.095 68.484 23.7902Z" stroke="#263238" stroke-linecap="round" stroke-linejoin="round"/>
<path d="M69.2038 28.6053C69.2991 28.6053 69.3764 28.4055 69.3764 28.1591C69.3764 27.9127 69.2991 27.7129 69.2038 27.7129C69.1085 27.7129 69.0312 27.9127 69.0312 28.1591C69.0312 28.4055 69.1085 28.6053 69.2038 28.6053Z" fill="#222220"/>
<path d="M68.8311 27.0122C68.8311 27.0122 69.5238 26.317 69.9207 27.3597" stroke="#263238" stroke-linecap="round" stroke-linejoin="round"/>
<path d="M69.4209 31.0867C69.4209 31.0867 70.7127 31.0374 70.9 29.9453" stroke="#263238" stroke-linecap="round" stroke-linejoin="round"/>
<path d="M74.6842 26.9852C74.4871 26.9538 74.2853 26.9947 74.1159 27.1002C73.9465 27.2057 73.8209 27.3689 73.7622 27.5596C73.6537 27.8826 73.4368 28.2351 73.0004 28.208C72.2067 28.1587 72.3053 26.8176 72.0144 26.2358C71.7235 25.654 70.7251 25.6392 68.9378 25.4963C67.1506 25.3533 65.7602 25.3459 65.9106 23.0631C66.0609 20.7803 67.4981 19.1928 68.4916 19.4393C69.4851 19.6858 69.1843 20.731 69.1843 20.731C69.1843 20.731 72.362 19.1928 75.0416 19.9372C77.7213 20.6817 78.3672 23.2135 78.2686 25.6072C78.17 28.0009 76.9793 29.3789 76.183 29.7265C75.3868 30.0741 74.7951 30.6214 74.4574 30.5203C74.1196 30.4192 73.9643 29.6279 74.2577 29.3789C74.5511 29.1299 75.4484 28.0403 75.2019 27.4068C75.1644 27.2947 75.0958 27.1955 75.0042 27.1209C74.9125 27.0463 74.8015 26.9992 74.6842 26.9852Z" fill="#263238" stroke="#263238" stroke-linecap="round" stroke-linejoin="round"/>
<path d="M67.9091 23.1094C67.9091 23.1094 66.9969 24.9336 69.0677 25.015C71.1385 25.0963 73.7121 23.6887 75.6177 24.2754C77.5233 24.8621 77.691 26.5952 77.193 27.7563" stroke="white" stroke-width="0.75" stroke-linecap="round" stroke-linejoin="round"/>
<path d="M71.3936 22.8603C71.3936 22.8603 76.6987 20.7871 77.5294 23.8464" stroke="white" stroke-width="0.75" stroke-linecap="round" stroke-linejoin="round"/>
</svg>
