<svg width="38" height="40" viewBox="0 0 38 40" fill="none" xmlns="http://www.w3.org/2000/svg">
<path d="M18.5 0C11.6071 0 6 5.60708 6 12.5C6 19.3929 11.6071 25 18.5 25C25.3929 25 31 19.3919 31 12.5C31 5.60806 25.3929 0 18.5 0ZM18.5 23.0635C12.676 23.0635 7.93647 18.325 7.93647 12.5C7.93647 6.67505 12.676 1.93647 18.5 1.93647C24.324 1.93647 29.0635 6.67505 29.0635 12.5C29.0635 18.325 24.325 23.0635 18.5 23.0635Z" fill="white"/>
<path d="M23.3411 11.4447H19.4682V7.57178C19.4682 7.0373 19.0354 6.60352 18.4999 6.60352C17.9645 6.60352 17.5316 7.0373 17.5316 7.57178V11.4447H13.6587C13.1232 11.4447 12.6904 11.8785 12.6904 12.413C12.6904 12.9475 13.1232 13.3812 13.6587 13.3812H17.5316V17.2542C17.5316 17.7887 17.9645 18.2225 18.4999 18.2225C19.0354 18.2225 19.4682 17.7887 19.4682 17.2542V13.3812H23.3411C23.8766 13.3812 24.3094 12.9475 24.3094 12.413C24.3094 11.8785 23.8766 11.4447 23.3411 11.4447Z" fill="white"/>
<path d="M6.11094 36.46C6.17094 36.46 6.2226 36.4833 6.26594 36.53L6.68594 36.99C6.3926 37.3367 6.03427 37.605 5.61094 37.795C5.19094 37.985 4.68427 38.08 4.09094 38.08C3.57094 38.08 3.09927 37.99 2.67594 37.81C2.25594 37.63 1.89594 37.3783 1.59594 37.055C1.29927 36.7317 1.06927 36.345 0.905938 35.895C0.742604 35.445 0.660938 34.95 0.660938 34.41C0.660938 33.87 0.745938 33.375 0.915938 32.925C1.08927 32.475 1.33094 32.0883 1.64094 31.765C1.95094 31.4417 2.32094 31.19 2.75094 31.01C3.18427 30.83 3.6626 30.74 4.18594 30.74C4.69594 30.74 5.14927 30.8233 5.54594 30.99C5.9426 31.1567 6.2876 31.3783 6.58094 31.655L6.23094 32.15C6.2076 32.1867 6.1776 32.2167 6.14094 32.24C6.1076 32.2633 6.0626 32.275 6.00594 32.275C5.9426 32.275 5.8676 32.2433 5.78094 32.18C5.6976 32.1167 5.58594 32.0467 5.44594 31.97C5.30927 31.89 5.13927 31.8183 4.93594 31.755C4.7326 31.6917 4.47927 31.66 4.17594 31.66C3.81927 31.66 3.4926 31.7233 3.19594 31.85C2.89927 31.9733 2.6426 32.1533 2.42594 32.39C2.2126 32.6233 2.04594 32.9117 1.92594 33.255C1.80927 33.595 1.75094 33.98 1.75094 34.41C1.75094 34.8467 1.8126 35.235 1.93594 35.575C2.05927 35.915 2.22927 36.2033 2.44594 36.44C2.6626 36.6767 2.9176 36.8567 3.21094 36.98C3.50427 37.1033 3.82094 37.165 4.16094 37.165C4.3676 37.165 4.5526 37.1533 4.71594 37.13C4.8826 37.1033 5.03427 37.065 5.17094 37.015C5.31094 36.965 5.4426 36.9017 5.56594 36.825C5.68927 36.745 5.81094 36.65 5.93094 36.54C5.9576 36.5167 5.98594 36.4983 6.01594 36.485C6.04594 36.4683 6.0776 36.46 6.11094 36.46ZM9.62344 32.84C9.99677 32.84 10.3334 32.9017 10.6334 33.025C10.9368 33.145 11.1934 33.32 11.4034 33.55C11.6168 33.7767 11.7801 34.0517 11.8934 34.375C12.0068 34.695 12.0634 35.055 12.0634 35.455C12.0634 35.855 12.0068 36.2167 11.8934 36.54C11.7801 36.8633 11.6168 37.1383 11.4034 37.365C11.1934 37.5917 10.9368 37.7667 10.6334 37.89C10.3334 38.01 9.99677 38.07 9.62344 38.07C9.24677 38.07 8.90677 38.01 8.60344 37.89C8.30344 37.7667 8.04677 37.5917 7.83344 37.365C7.6201 37.1383 7.4551 36.8633 7.33844 36.54C7.2251 36.2167 7.16844 35.855 7.16844 35.455C7.16844 35.055 7.2251 34.695 7.33844 34.375C7.4551 34.0517 7.6201 33.7767 7.83344 33.55C8.04677 33.32 8.30344 33.145 8.60344 33.025C8.90677 32.9017 9.24677 32.84 9.62344 32.84ZM9.62344 37.31C10.1034 37.31 10.4618 37.1483 10.6984 36.825C10.9351 36.5017 11.0534 36.0467 11.0534 35.46C11.0534 34.8733 10.9351 34.4183 10.6984 34.095C10.4618 33.7683 10.1034 33.605 9.62344 33.605C9.13677 33.605 8.77344 33.7683 8.53344 34.095C8.29677 34.4183 8.17844 34.8733 8.17844 35.46C8.17844 36.0467 8.29677 36.5017 8.53344 36.825C8.77344 37.1483 9.13677 37.31 9.62344 37.31ZM12.7341 33.45C12.9241 33.27 13.1575 33.1233 13.4341 33.01C13.7108 32.8967 14.0425 32.84 14.4291 32.84C14.7391 32.84 15.0125 32.8783 15.2491 32.955C15.4858 33.0283 15.6841 33.1283 15.8441 33.255C16.0075 33.3783 16.1291 33.52 16.2091 33.68C16.2925 33.84 16.3341 34.0067 16.3341 34.18C16.3341 34.28 16.3175 34.385 16.2841 34.495C16.2541 34.6017 16.2041 34.705 16.1341 34.805C16.0641 34.905 15.9708 34.9983 15.8541 35.085C15.7408 35.1683 15.5991 35.2383 15.4291 35.295C15.7425 35.3917 15.9908 35.545 16.1741 35.755C16.3575 35.965 16.4491 36.2267 16.4491 36.54C16.4491 36.7767 16.3941 36.99 16.2841 37.18C16.1775 37.37 16.0325 37.5317 15.8491 37.665C15.6658 37.795 15.4541 37.895 15.2141 37.965C14.9741 38.035 14.7241 38.07 14.4641 38.07C14.3041 38.07 14.1391 38.055 13.9691 38.025C13.8025 37.995 13.6375 37.9483 13.4741 37.885C13.3108 37.8217 13.1558 37.74 13.0091 37.64C12.8625 37.54 12.7308 37.4183 12.6141 37.275L12.8941 36.915C12.9375 36.855 12.9991 36.825 13.0791 36.825C13.1425 36.825 13.2075 36.8517 13.2741 36.905C13.3441 36.955 13.4275 37.01 13.5241 37.07C13.6241 37.13 13.7425 37.1867 13.8791 37.24C14.0191 37.29 14.1925 37.315 14.3991 37.315C14.5758 37.315 14.7325 37.2933 14.8691 37.25C15.0091 37.2067 15.1258 37.1467 15.2191 37.07C15.3158 36.9933 15.3891 36.9033 15.4391 36.8C15.4891 36.6967 15.5141 36.5833 15.5141 36.46C15.5141 36.22 15.4158 36.0283 15.2191 35.885C15.0225 35.7417 14.7191 35.67 14.3091 35.67H13.7341V35.02H14.3091C14.6691 35.02 14.9491 34.9533 15.1491 34.82C15.3491 34.6833 15.4491 34.5083 15.4491 34.295C15.4491 34.2017 15.4275 34.1133 15.3841 34.03C15.3408 33.9433 15.2741 33.8683 15.1841 33.805C15.0975 33.7383 14.9875 33.6867 14.8541 33.65C14.7241 33.6133 14.5725 33.595 14.3991 33.595C14.2058 33.595 14.0425 33.615 13.9091 33.655C13.7758 33.6917 13.6625 33.7333 13.5691 33.78C13.4758 33.8267 13.3975 33.87 13.3341 33.91C13.2741 33.9467 13.2225 33.965 13.1791 33.965C13.1325 33.965 13.0925 33.9567 13.0591 33.94C13.0291 33.92 12.9958 33.8817 12.9591 33.825L12.7341 33.45ZM20.9773 37.29V33.685H19.4573C19.4239 34.1783 19.3789 34.6183 19.3223 35.005C19.2656 35.3917 19.1989 35.7317 19.1223 36.025C19.0489 36.315 18.9673 36.565 18.8773 36.775C18.7873 36.9817 18.6923 37.1533 18.5923 37.29H20.9773ZM22.8523 37.26V39.435C22.8523 39.5283 22.8256 39.6017 22.7723 39.655C22.7223 39.7083 22.6556 39.735 22.5723 39.735H21.9673V38H17.8173V39.455C17.8173 39.5283 17.7956 39.5933 17.7523 39.65C17.7089 39.7067 17.6406 39.735 17.5473 39.735H16.9273V37.29H17.0923C17.2089 37.29 17.3239 37.2717 17.4373 37.235C17.5506 37.1983 17.6589 37.125 17.7623 37.015C17.8689 36.905 17.9689 36.75 18.0623 36.55C18.1556 36.35 18.2406 36.0883 18.3173 35.765C18.3939 35.4417 18.4606 35.0483 18.5173 34.585C18.5739 34.1183 18.6189 33.5633 18.6523 32.92H21.9223V37.26H22.8523ZM26.458 35.745C26.0613 35.7583 25.7246 35.79 25.448 35.84C25.1713 35.8867 24.9463 35.95 24.773 36.03C24.5996 36.11 24.4746 36.205 24.398 36.315C24.3213 36.4217 24.283 36.5417 24.283 36.675C24.283 36.8017 24.303 36.9117 24.343 37.005C24.3863 37.095 24.443 37.17 24.513 37.23C24.5863 37.2867 24.6713 37.3283 24.768 37.355C24.8646 37.3817 24.9696 37.395 25.083 37.395C25.233 37.395 25.3696 37.38 25.493 37.35C25.6196 37.32 25.738 37.2783 25.848 37.225C25.958 37.1683 26.063 37.1 26.163 37.02C26.263 36.94 26.3613 36.8483 26.458 36.745V35.745ZM23.598 33.63C23.8813 33.36 24.188 33.1583 24.518 33.025C24.8513 32.8917 25.2163 32.825 25.613 32.825C25.903 32.825 26.1596 32.8733 26.383 32.97C26.6063 33.0633 26.7946 33.195 26.948 33.365C27.1013 33.535 27.2163 33.7383 27.293 33.975C27.373 34.2117 27.413 34.4733 27.413 34.76V38H26.978C26.8813 38 26.808 37.985 26.758 37.955C26.708 37.9217 26.668 37.8617 26.638 37.775L26.533 37.33C26.403 37.45 26.2746 37.5567 26.148 37.65C26.0213 37.74 25.888 37.8183 25.748 37.885C25.6113 37.9483 25.4646 37.9967 25.308 38.03C25.1513 38.0633 24.978 38.08 24.788 38.08C24.588 38.08 24.3996 38.0533 24.223 38C24.0496 37.9433 23.898 37.8583 23.768 37.745C23.638 37.6317 23.5346 37.49 23.458 37.32C23.3846 37.15 23.348 36.9517 23.348 36.725C23.348 36.525 23.4013 36.3333 23.508 36.15C23.618 35.9633 23.7946 35.7967 24.038 35.65C24.2846 35.5033 24.6046 35.3833 24.998 35.29C25.3946 35.1967 25.8813 35.1433 26.458 35.13V34.76C26.458 34.3767 26.3763 34.09 26.213 33.9C26.0496 33.71 25.8096 33.615 25.493 33.615C25.2796 33.615 25.0996 33.6417 24.953 33.695C24.8096 33.7483 24.6846 33.8083 24.578 33.875C24.4746 33.9383 24.383 33.9967 24.303 34.05C24.2263 34.1033 24.1463 34.13 24.063 34.13C23.9963 34.13 23.938 34.1117 23.888 34.075C23.8413 34.0383 23.803 33.995 23.773 33.945L23.598 33.63ZM32.856 33.66H30.941V38H29.961V33.66H28.046V32.92H32.856V33.66ZM35.6494 37.285C35.9827 37.285 36.2327 37.205 36.3994 37.045C36.566 36.8817 36.6494 36.675 36.6494 36.425C36.6494 36.3117 36.631 36.205 36.5944 36.105C36.5577 36.0017 36.4994 35.9133 36.4194 35.84C36.3394 35.7633 36.2344 35.7033 36.1044 35.66C35.9777 35.6133 35.821 35.59 35.6344 35.59H34.5994V37.285H35.6494ZM35.6344 34.88C35.9844 34.88 36.2794 34.9233 36.5194 35.01C36.7627 35.0933 36.9577 35.2067 37.1044 35.35C37.251 35.49 37.356 35.6533 37.4194 35.84C37.486 36.0233 37.5194 36.215 37.5194 36.415C37.5194 36.645 37.4777 36.8583 37.3944 37.055C37.3144 37.2483 37.1944 37.415 37.0344 37.555C36.8744 37.695 36.6777 37.805 36.4444 37.885C36.2144 37.9617 35.9494 38 35.6494 38H33.6694V32.92H34.5994V34.88H35.6344Z" fill="white"/>
</svg>
