<svg width="14" height="14" viewBox="0 0 14 14" fill="none" xmlns="http://www.w3.org/2000/svg">
<path d="M13.1228 14C5.65764 14.0106 -0.00797792 8.27706 8.43274e-06 0.877196C8.43274e-06 0.393947 0.391759 0 0.875009 0H3.18445C3.61807 0 3.98644 0.318613 4.05011 0.747538C4.20272 1.77555 4.50203 2.77635 4.93892 3.71936L5.02884 3.91344C5.15386 4.18329 5.06912 4.50392 4.82709 4.67676C4.11189 5.18752 3.83856 6.21561 4.39573 7.01781C5.09493 8.02448 5.97629 8.90566 6.98274 9.60454C7.78489 10.1616 8.81283 9.88827 9.32357 9.17319C9.49653 8.93104 9.81733 8.84625 10.0873 8.97133L10.2805 9.06082C11.2236 9.49768 12.2245 9.797 13.2526 9.94958C13.6815 10.0132 14 10.3816 14 10.8152V13.125C14 13.6082 13.6073 14 13.124 14L13.1228 14Z" fill="#7F807F"/>
</svg>
