<svg width="18" height="18" viewBox="0 0 18 18" fill="none" xmlns="http://www.w3.org/2000/svg">
<g clip-path="url(#clip0)">
<path d="M9 18C13.9623 18 18 13.9627 18 9C18 8.14343 17.8804 7.29932 17.6437 6.49091C17.527 6.09338 17.1119 5.86505 16.7133 5.98169C16.3154 6.09796 16.0878 6.51453 16.2041 6.91205C16.4002 7.58368 16.5 8.28644 16.5 9C16.5 13.1354 13.1354 16.5 9 16.5C4.86456 16.5 1.5 13.1354 1.5 9C1.5 4.86456 4.86456 1.5 9 1.5C10.5029 1.5 11.9489 1.93945 13.1816 2.77057C13.5247 3.0022 13.9913 2.91119 14.2225 2.56805C14.454 2.22455 14.3637 1.75836 14.0202 1.52692C12.5389 0.528076 10.803 0 9 0C4.03766 0 0 4.03729 0 9C0 13.9627 4.03766 18 9 18V18Z" fill="#038992"/>
<path d="M16.7197 1.71971L8.99999 9.43907L6.53026 6.96971C6.23729 6.67693 5.76268 6.67693 5.46971 6.96971C5.17693 7.26268 5.17693 7.73729 5.46971 8.03026L8.46971 11.0303C8.61638 11.1769 8.80791 11.25 8.99999 11.25C9.19206 11.25 9.38359 11.1769 9.53026 11.0303L17.7803 2.78026C18.073 2.48729 18.073 2.01268 17.7803 1.71971C17.4873 1.42693 17.0127 1.42693 16.7197 1.71971Z" fill="#038992"/>
</g>
<defs>
<clipPath id="clip0">
<rect width="18" height="18" fill="white"/>
</clipPath>
</defs>
</svg>
