<svg width="25" height="25" viewBox="0 0 25 25" fill="none" xmlns="http://www.w3.org/2000/svg">
<path d="M12.5 0C5.60708 0 0 5.60708 0 12.5C0 19.3929 5.60708 25 12.5 25C19.3929 25 25 19.3919 25 12.5C25 5.60806 19.3929 0 12.5 0ZM12.5 23.0635C6.67603 23.0635 1.93647 18.325 1.93647 12.5C1.93647 6.67505 6.67603 1.93647 12.5 1.93647C18.324 1.93647 23.0635 6.67505 23.0635 12.5C23.0635 18.325 18.325 23.0635 12.5 23.0635Z" fill="white"/>
<path d="M17.3411 11.4447H13.4682V7.57178C13.4682 7.0373 13.0354 6.60352 12.4999 6.60352C11.9645 6.60352 11.5316 7.0373 11.5316 7.57178V11.4447H7.65869C7.12324 11.4447 6.69043 11.8785 6.69043 12.413C6.69043 12.9475 7.12324 13.3812 7.65869 13.3812H11.5316V17.2542C11.5316 17.7887 11.9645 18.2225 12.4999 18.2225C13.0354 18.2225 13.4682 17.7887 13.4682 17.2542V13.3812H17.3411C17.8766 13.3812 18.3094 12.9475 18.3094 12.413C18.3094 11.8785 17.8766 11.4447 17.3411 11.4447Z" fill="white"/>
</svg>
