<svg width="22" height="25" viewBox="0 0 22 25" fill="none" xmlns="http://www.w3.org/2000/svg">
<path d="M17.8884 0H2.73695C2.10937 0 1.60059 0.508787 1.60059 1.13636V23.8636C1.60059 24.3004 1.85096 24.6986 2.24468 24.8878C2.63839 25.0771 3.10566 25.0239 3.44679 24.7509L10.3127 19.2583L17.1786 24.7509C17.384 24.9153 17.6352 24.9999 17.8886 24.9999C18.0559 24.9999 18.2242 24.963 18.3807 24.8878C18.7744 24.6987 19.0248 24.3005 19.0248 23.8636V1.13636C19.0248 0.508787 18.516 0 17.8884 0ZM16.7521 21.4992L11.0225 16.9156C10.815 16.7497 10.5638 16.6666 10.3127 16.6666C10.0616 16.6666 9.81034 16.7497 9.60284 16.9156L3.87331 21.4992V2.27272H16.7521V21.4992Z" fill="#038992"/>
<rect x="3.60059" y="2" width="14" height="15" fill="#038992"/>
<path d="M12.4226 17.9702L3.51088 22.1201L3.07657 14.922L12.4226 17.9702Z" fill="#038992"/>
<path d="M8.81398 17.7743L17.6934 22.4597L18.1924 14.1905L8.81398 17.7743Z" fill="#038992"/>
</svg>
