<svg width="18" height="25" viewBox="0 0 18 25" fill="none" xmlns="http://www.w3.org/2000/svg">
<path d="M16.2878 0H1.13636C0.508787 0 0 0.508787 0 1.13636V23.8636C0 24.3004 0.250378 24.6986 0.644089 24.8878C1.0378 25.0771 1.50507 25.0239 1.84621 24.7509L8.7121 19.2583L15.578 24.7509C15.7834 24.9153 16.0346 24.9999 16.288 24.9999C16.4553 24.9999 16.6236 24.963 16.7801 24.8878C17.1738 24.6987 17.4242 24.3005 17.4242 23.8636V1.13636C17.4242 0.508787 16.9154 0 16.2878 0ZM15.1515 21.4992L9.42195 16.9156C9.21445 16.7497 8.96324 16.6666 8.7121 16.6666C8.46097 16.6666 8.20975 16.7497 8.00225 16.9156L2.27272 21.4992V2.27272H15.1515V21.4992Z" fill="white"/>
</svg>
