<svg width="22" height="25" viewBox="0 0 22 25" fill="none" xmlns="http://www.w3.org/2000/svg">
<path d="M18.2878 0H3.13636C2.50879 0 2 0.508787 2 1.13636V23.8636C2 24.3004 2.25038 24.6986 2.64409 24.8878C3.0378 25.0771 3.50507 25.0239 3.84621 24.7509L10.7121 19.2583L17.578 24.7509C17.7834 24.9153 18.0346 24.9999 18.288 24.9999C18.4553 24.9999 18.6236 24.963 18.7801 24.8878C19.1738 24.6987 19.4242 24.3005 19.4242 23.8636V1.13636C19.4242 0.508787 18.9154 0 18.2878 0ZM17.1515 21.4992L11.4219 16.9156C11.2144 16.7497 10.9632 16.6666 10.7121 16.6666C10.461 16.6666 10.2098 16.7497 10.0023 16.9156L4.27272 21.4992V2.27272H17.1515V21.4992Z" fill="white"/>
<rect x="4" y="2" width="14" height="15" fill="white"/>
<path d="M12.822 17.9702L3.9103 22.1201L3.47598 14.922L12.822 17.9702Z" fill="white"/>
<path d="M9.21339 17.7743L18.0928 22.4597L18.5918 14.1905L9.21339 17.7743Z" fill="white"/>
</svg>
