<svg width="23" height="24" viewBox="0 0 23 24" fill="none" xmlns="http://www.w3.org/2000/svg">
<g filter="url(#filter0_d)">
<path d="M11.9505 7.52552V0.433979C11.9505 0.19288 11.7576 0 11.5165 0C11.2754 0 11.0825 0.19288 11.0825 0.433979V7.52552C10.0763 7.72805 9.31445 8.61851 9.31445 9.68578C9.31445 10.753 10.0763 11.6435 11.0825 11.846V15.0028C11.0825 15.2439 11.2754 15.4368 11.5165 15.4368C11.7576 15.4368 11.9505 15.2439 11.9505 15.0028V11.846C12.9567 11.6435 13.7185 10.753 13.7185 9.68578C13.7185 8.62172 12.9599 7.72805 11.9505 7.52552ZM11.5165 11.0199C10.7803 11.0199 10.1824 10.4219 10.1824 9.68578C10.1824 8.94962 10.7803 8.35169 11.5165 8.35169C12.2527 8.35169 12.8506 8.94962 12.8506 9.68578C12.8506 10.4219 12.2527 11.0199 11.5165 11.0199Z" fill="#7E8389"/>
<path d="M6.63602 3.88653V0.433979C6.63602 0.19288 6.44314 0 6.20204 0C5.96094 0 5.76806 0.19288 5.76806 0.433979V3.88653C4.76187 4.08905 4 4.97951 4 6.04678C4 7.11405 4.76187 8.00451 5.76806 8.20703V15.0028C5.76806 15.2439 5.96094 15.4368 6.20204 15.4368C6.44314 15.4368 6.63602 15.2439 6.63602 15.0028V8.20382C7.64221 8.00129 8.40409 7.11083 8.40409 6.04356C8.40409 4.9763 7.64221 4.08905 6.63602 3.88653ZM6.20204 7.38086C5.46589 7.38086 4.86796 6.78294 4.86796 6.04678C4.86796 5.31062 5.46589 4.71269 6.20204 4.71269C6.9382 4.71269 7.53613 5.31062 7.53613 6.04678C7.53613 6.78294 6.93499 7.38086 6.20204 7.38086Z" fill="#7E8389"/>
<path d="M17.2317 3.88653V0.433979C17.2317 0.19288 17.0388 0 16.7977 0C16.5566 0 16.3638 0.19288 16.3638 0.433979V3.88653C15.3576 4.08905 14.5957 4.97951 14.5957 6.04678C14.5957 7.11405 15.3576 8.00451 16.3638 8.20703V15.006C16.3638 15.2471 16.5566 15.44 16.7977 15.44C17.0388 15.44 17.2317 15.2471 17.2317 15.006V8.20382C18.2379 8.00129 18.9998 7.11083 18.9998 6.04356C18.9998 4.9763 18.2411 4.08905 17.2317 3.88653ZM16.7977 7.38086C16.0616 7.38086 15.4637 6.78294 15.4637 6.04678C15.4637 5.31062 16.0616 4.71269 16.7977 4.71269C17.5339 4.71269 18.1318 5.31062 18.1318 6.04678C18.1318 6.78294 17.5339 7.38086 16.7977 7.38086Z" fill="#7E8389"/>
</g>
<defs>
<filter id="filter0_d" x="0" y="0" width="22.9998" height="23.44" filterUnits="userSpaceOnUse" color-interpolation-filters="sRGB">
<feFlood flood-opacity="0" result="BackgroundImageFix"/>
<feColorMatrix in="SourceAlpha" type="matrix" values="0 0 0 0 0 0 0 0 0 0 0 0 0 0 0 0 0 0 127 0" result="hardAlpha"/>
<feOffset dy="4"/>
<feGaussianBlur stdDeviation="2"/>
<feComposite in2="hardAlpha" operator="out"/>
<feColorMatrix type="matrix" values="0 0 0 0 0 0 0 0 0 0 0 0 0 0 0 0 0 0 0.25 0"/>
<feBlend mode="normal" in2="BackgroundImageFix" result="effect1_dropShadow"/>
<feBlend mode="normal" in="SourceGraphic" in2="effect1_dropShadow" result="shape"/>
</filter>
</defs>
</svg>
