<svg width="29" height="25" viewBox="0 0 29 25" fill="none" xmlns="http://www.w3.org/2000/svg">
<path d="M24.218 25.0002H17.968C17.7608 25.0002 17.562 24.9179 17.4155 24.7714C17.269 24.6249 17.1867 24.4262 17.1867 24.219V17.9689C17.1867 17.7617 17.1044 17.563 16.9579 17.4165C16.8114 17.27 16.6126 17.1876 16.4054 17.1876H11.7179C11.5107 17.1876 11.312 17.27 11.1655 17.4165C11.0189 17.563 10.9366 17.7617 10.9366 17.9689V24.219C10.9366 24.4262 10.8543 24.6249 10.7078 24.7714C10.5613 24.9179 10.3626 25.0002 10.1554 25.0002H3.90528C3.69808 25.0002 3.49936 24.9179 3.35285 24.7714C3.20633 24.6249 3.12402 24.4262 3.12402 24.219V15.1857C3.21094 15.1266 3.31201 15.0934 3.39112 15.0221L14.0617 5.61523L24.7425 15.0343C24.8177 15.1017 24.9163 15.132 24.9993 15.1906V24.219C24.9993 24.4262 24.917 24.6249 24.7705 24.7714C24.624 24.9179 24.4252 25.0002 24.218 25.0002Z" fill="white"/>
<path d="M25.7774 13.861L14.58 3.98442C14.4373 3.85851 14.2535 3.78902 14.0632 3.78902C13.8728 3.78902 13.689 3.85851 13.5463 3.98442L2.34891 13.8615C2.19478 13.9999 1.992 14.0714 1.78515 14.0603C1.57831 14.0493 1.38433 13.9565 1.24587 13.8024L0.199953 12.6408C0.0615597 12.4867 -0.00996002 12.2839 0.00111939 12.077C0.0121988 11.8702 0.10497 11.6762 0.259036 11.5377L12.7592 0.502445C13.1169 0.179053 13.5819 0 14.0641 0C14.5464 0 15.0114 0.179053 15.3691 0.502445L20.3125 4.86627V2.34329C20.3125 2.13609 20.3948 1.93737 20.5413 1.79085C20.6879 1.64434 20.8866 1.56203 21.0938 1.56203H24.2188C24.426 1.56203 24.6247 1.64434 24.7712 1.79085C24.9178 1.93737 25.0001 2.13609 25.0001 2.34329V9.005L27.8658 11.5358C28.02 11.6742 28.1128 11.8681 28.124 12.075C28.1352 12.2818 28.0637 12.4846 27.9254 12.6388L26.8805 13.8019C26.742 13.956 26.548 14.0488 26.3412 14.0598C26.1343 14.0709 25.9316 13.9994 25.7774 13.861Z" fill="white"/>
</svg>
