<?xml version="1.0" encoding="utf-8"?>
<!-- Svg Vector Icons : http://www.onlinewebfonts.com/icon -->
<!DOCTYPE svg PUBLIC "-//W3C//DTD SVG 1.1//EN" "http://www.w3.org/Graphics/SVG/1.1/DTD/svg11.dtd">
<svg version="1.1" xmlns="http://www.w3.org/2000/svg" xmlns:xlink="http://www.w3.org/1999/xlink" x="0px" y="0px" viewBox="0 0 1000 1000" enable-background="new 0 0 1000 1000" xml:space="preserve">
<metadata> Svg Vector Icons : http://www.onlinewebfonts.com/icon </metadata>
<g><path d="M273.2,888.6c-23.4,0-46.9,0-70.3,0c-25.1,0-41.3-15.6-41.5-39.7c-0.4-82.6-0.4-170.1,0.1-275.4c0-5.3,4.2-11.7,8.2-15c52.4-43.6,106-87.7,157.8-130.4l74.7-61.6c28.8-23.8,57.6-47.5,86.5-71.3c2-1.6,4-3.2,6.2-5c1.4-1.1,3-2.4,4.6-3.7l0.6-0.5l19.4,15.9c19.1,15.7,38.1,31.3,57,47c21.7,17.9,43.5,35.8,65.2,53.8c60.4,49.8,122.8,101.3,184.4,151.7c9.4,7.6,13.1,15.5,13.1,27.3c-0.5,84.8-0.4,168.5-0.2,261.3c0,18.9-5.8,31.3-18.3,39.1c-3.6,2.3-10.7,6.1-17.8,6.1c-31.2,0.2-65.3,0.2-107.1,0.2c-23.3,0-46.5,0-69.8,0c-15.6,0-31.3,0-46.9,0c-0.9,0-1.8-0.3-2.9-0.6c-0.5-0.1-1-0.3-1.6-0.5l-0.7-0.2V664.4h-147v223.6l-0.9,0c-1.5,0.1-3,0.2-4.4,0.2c-2.8,0.2-5.3,0.3-7.8,0.3c-23.4,0-46.9,0-70.3,0C320.1,888.6,296.7,888.6,273.2,888.6z M500.1,288.5c-1.4,1.1-2.8,2.2-4,3.2c-2.2,1.7-4.2,3.3-6.2,5c-28.8,23.7-57.7,47.5-86.5,71.3l-74.7,61.6c-51.8,42.7-105.3,86.8-157.7,130.4c-3.7,3.1-7.5,9-7.5,13.6c-0.5,105.3-0.6,192.7-0.1,275.3c0.1,23.3,15.3,37.8,39.6,37.8c46.9,0,93.7,0,140.6,0c23.4,0,46.9,0,70.3,0c2.4,0,4.9-0.1,7.6-0.3c1.1-0.1,2.3-0.1,3.5-0.2V662.5h150.8v223.3c0.3,0.1,0.6,0.2,0.9,0.3c1.1,0.3,1.7,0.5,2.4,0.5c15.6,0,31.3,0,46.9,0c23.3,0,46.5,0,69.8,0c41.8,0,75.8-0.1,107.1-0.2c6.6,0,13.4-3.7,16.8-5.8c12-7.5,17.5-19.4,17.5-37.5c-0.2-92.8-0.3-176.5,0.2-261.3c0.1-11.3-3.4-18.5-12.4-25.8c-61.6-50.4-124-101.9-184.4-151.7c-21.7-17.9-43.5-35.9-65.2-53.8c-19-15.7-38-31.3-57-47L500.1,288.5z"/><path d="M273.2,904.7c-23.4,0-46.9,0-70.3,0c-33.8,0-57.5-22.9-57.6-55.8c-0.4-82.6-0.4-170.2,0.1-275.5c0-10.8,7-21.5,14-27.4c52.6-43.8,106.1-87.9,157.9-130.5l74.7-61.5c28.8-23.8,57.6-47.5,86.5-71.3c2.1-1.7,4.2-3.4,6.4-5.1l0.4-0.3c1.3-1.1,2.7-2.2,4.2-3.4l10.9-8.7l29.5,24.3c19.1,15.7,38.1,31.3,57.1,47c20.3,16.7,40.6,33.4,60.8,50.2l4.4,3.6c60.3,49.8,122.7,101.2,184.4,151.7c13.1,10.6,19.1,23.3,19,39.9c-0.5,84.8-0.4,168.4-0.2,261.2c0.1,24.3-8.7,42.1-25.9,52.9c-6.1,3.9-15.7,8.5-26.3,8.6c-31.3,0.2-65.3,0.2-107.2,0.2c-20.6,0-41.1,0-61.7,0l-8.9,0c-15.4,0-30.7,0-46.1,0c-3.3,0-6-0.8-7.7-1.3l-0.1,0c-0.3-0.1-0.7-0.2-1.1-0.3l-12.6-3.5V680.5H443.1v222.8l-16.3,0.8c-1.3,0.1-2.6,0.1-3.8,0.2l-0.4,0c-3,0.2-5.7,0.3-8.7,0.3c-23.4,0-46.9,0-70.3,0C320.1,904.7,296.7,904.7,273.2,904.7z M179.6,574.6c-0.5,104.8-0.5,191.9-0.1,274.2c0.1,14.4,7.9,21.7,23.4,21.7c24.2,0,48.4,0,72.6,0l79.5,0c17.9,0,35.9,0,53.8,0V646.3H592v224.1c11.3,0,22.7,0,34,0l3.1,0c22.2,0,44.5,0,66.7,0c41.7,0,75.7-0.1,107-0.2c1.4,0,4.6-1.1,8.3-3.3c5.2-3.2,9.9-8.3,9.9-23.8c-0.2-92.8-0.3-176.6,0.2-261.5c0-6.4-1.2-8.9-6.4-13.2c-61.7-50.5-124.1-102-184.5-151.8l-0.1-0.1c-21.7-17.9-43.4-35.8-65.1-53.7c-19-15.6-38-31.3-57-46.9l-8-6.6c-28.7,23.6-57.3,47.3-86,70.9L339,442c-51.7,42.6-105.2,86.6-157.7,130.4C180.8,572.7,180,573.8,179.6,574.6z"/><path d="M82.3,556.9c-6,0-11.7-3.5-18.5-11.5c-10.6-12.4-20.2-23.9-29.4-35c-11.9-14.3-11.1-23.5,2.9-35.3c43.7-36.5,88.1-73.6,131.1-109.4c14.8-12.3,29.6-24.6,44.3-36.9c25.7-21.4,51.3-42.8,77-64.2c51.5-42.9,104.7-87.2,157-130.9c17.8-14.8,35.6-22.3,53.1-22.3c17.6,0,35.5,7.6,53.4,22.6c32.7,27.4,66,55.2,98.2,82.1l27.7,23.1c1.2,1,2.6,2,4.4,3.4c0.7,0.5,1.5,1.1,2.4,1.8c0-11.8,0-23.3,0-34.7c0-23.3,0-45.7,0-68.1c0-22.1,5.8-27.8,27.8-27.8l50.4,0c16.8,0,33.6,0,50.4,0c17.9,0,24.3,6.7,24.3,25.4l0,31.6c0.1,61.1,0.2,124.3-0.3,186.5c-0.1,11.1,3.2,18,11.5,24.8c29.6,23.8,59.3,48.6,88,72.6c7.1,5.9,14.2,11.9,21.3,17.8c9.8,8.1,13.8,13.6,14.3,19.4c0.6,6.7-3.9,13.5-10.9,21.7c-3.9,4.6-7.8,9.3-11.6,13.9c-5,6.1-10.3,12.3-15.5,18.4c-6.4,7.5-12.1,11-18.1,11c-5.2,0-10.7-2.6-17.2-8.1c-66.8-55.8-133.7-111.5-200.5-167.3C637.8,329.7,575.7,277.8,513.6,226c-2.6-2.1-5.2-4.2-7.9-6.5c-1.8-1.5-3.7-3-5.7-4.7c-10,8.4-20,16.7-30,25c-18.3,15.3-37.3,31-55.9,46.5c-51.3,42.8-102.6,85.6-153.9,128.5c-53.4,44.5-106.7,89.1-160.1,133.6C93,554.3,87.5,556.9,82.3,556.9z M499.9,113.3c-17.3,0-34.2,7.2-51.9,21.9c-52.3,43.7-105.5,88-157,130.9c-25.7,21.4-51.3,42.8-77,64.2c-14.8,12.3-29.6,24.6-44.3,36.9c-43,35.8-87.5,72.9-131.1,109.4c-13.1,11-13.8,19.3-2.7,32.7c9.2,11.1,18.8,22.5,29.4,35c6.4,7.5,11.6,10.8,17,10.8c4.7,0,10-2.6,16.6-8.1c53.4-44.5,106.7-89,160.1-133.6c51.3-42.8,102.6-85.6,153.9-128.5c18.6-15.5,37.5-31.3,55.9-46.5c10.2-8.5,20.4-17,30.6-25.5l0.6-0.5l0.6,0.5c2.2,1.8,4.3,3.5,6.3,5.2c2.8,2.2,5.3,4.3,7.9,6.5c62.1,51.8,124.2,103.7,186.3,155.5c66.8,55.8,133.7,111.6,200.5,167.3c6.2,5.2,11.3,7.6,16,7.6c5.4,0,10.7-3.3,16.7-10.3c5.2-6.1,10.4-12.4,15.5-18.4c3.8-4.6,7.7-9.3,11.6-13.9c8-9.4,10.9-15.1,10.5-20.3c-0.4-5.2-4.4-10.4-13.6-18.1c-7.1-5.9-14.2-11.8-21.3-17.8c-28.7-24-58.4-48.8-88-72.6c-8.9-7.2-12.3-14.6-12.2-26.3c0.4-62.1,0.3-125.3,0.3-186.4l0-31.6c0-17.8-5.5-23.5-22.4-23.6c-16.8,0-33.6,0-50.4,0l-50.4,0c-21,0-25.9,4.9-25.9,26c0,22.4,0,44.9,0,68.1c0,11.9,0,24.1,0,36.6v1.9l-1.5-1.2c-1.5-1.2-2.8-2.2-3.9-3c-1.8-1.4-3.2-2.4-4.4-3.5l-27.7-23.1c-32.2-26.9-65.5-54.7-98.2-82.1C534.4,120.6,517.3,113.3,499.9,113.3z"/><path d="M82.3,573.1L82.3,573.1c-14.4,0-24.5-9.8-30.8-17.1c-10.6-12.5-20.3-24-29.6-35.2c-17.5-21-15.8-40.6,5-58c44-36.8,88.3-73.7,131.2-109.5c14.8-12.3,29.6-24.6,44.3-36.9c25.7-21.4,51.3-42.8,77-64.2l0.3-0.2c51.4-42.8,104.5-87.1,156.7-130.7c20.8-17.3,42.1-26.1,63.5-26.1c21.5,0,42.9,8.9,63.8,26.3c32.9,27.6,66.1,55.3,98.2,82.1l7.8,6.5c0-0.2,0-0.3,0-0.5c0-23.3,0-45.7,0-68.2c0.1-31.2,12.8-43.9,44-44l50.4,0c16.8,0,33.6,0,50.5,0c26.8,0.1,40.4,14,40.5,41.6l0,32.1c0.1,61,0.2,124-0.3,186.1c0,6.6,1.3,8.7,5.5,12.1c29.7,23.9,59.4,48.7,88.2,72.7c7.1,6,14.2,11.9,21.3,17.8c9.7,8.1,18.9,17.4,20,30.4c1.1,13-6.4,23.8-14.7,33.6c-3.7,4.4-7.4,8.8-11.5,13.8l-0.1,0.2c-5,6-10.2,12.3-15.5,18.4c-9.5,11.2-19.5,16.6-30.4,16.6c-12.1,0-21.5-6.7-27.6-11.8c-66.8-55.8-133.6-111.5-200.5-167.3c-62.1-51.8-124.2-103.7-186.3-155.5c-1-0.9-2.1-1.7-3.2-2.6c-6.6,5.5-13.2,11-19.8,16.5c-18.3,15.2-37.3,31-55.8,46.5c-49.9,41.6-99.8,83.3-149.7,125l-4.2,3.5c-53.4,44.5-106.7,89.1-160.1,133.6C103.6,566.5,94.2,573.1,82.3,573.1z M499.9,191.4l10.9,9c2.1,1.7,4,3.3,5.9,4.8l0.3,0.3c2.8,2.3,5.5,4.4,8.1,6.6c62.1,51.9,124.3,103.7,186.4,155.6l3.8,3.2C780.9,425.5,846.4,480.3,912,535c2.9,2.4,4.6,3.3,5.4,3.7c0.7-0.5,2.3-1.7,4.6-4.4c5.2-6.1,10.4-12.3,15.4-18.3c3.9-4.7,7.8-9.4,11.7-14c3.9-4.6,5.5-7.1,6.2-8.4c-0.9-1.2-3-3.4-7.4-7.1c-6-5-12-10-17.9-15l-3.4-2.8c-28.6-23.9-58.2-48.6-87.8-72.4c-12.8-10.3-18.4-22.3-18.3-39c0.4-62,0.3-125.1,0.3-186.1l0-31.8c0-3.8-0.3-5.9-0.6-6.9c-0.9-0.2-2.7-0.4-5.7-0.4c-16.8,0-33.6,0-50.4,0l-50.4,0c-5.1,0-7.8,0.4-9.1,0.6c-0.3,1.3-0.6,4-0.6,9.2c0,22.4,0,44.9,0,68.1l0,71.6l-27.6-21.5c-1.5-1.2-2.7-2.1-3.8-2.9l-0.1-0.1c-1.8-1.4-3.3-2.5-4.8-3.8L640,230c-32.2-26.8-65.4-54.6-98.3-82.1c-14.7-12.3-28.4-18.3-41.8-18.3c-13.3,0-26.9,5.9-41.5,18.1c-53.2,44.4-108.3,90.4-157,130.9c-25.7,21.4-51.3,42.8-77,64.2c-14.8,12.3-29.6,24.6-44.3,36.9l-0.7,0.6c-42.8,35.6-87,72.4-130.4,108.8c-2.6,2.2-3.9,3.7-4.4,4.4c0.4,0.9,1.4,2.6,3.8,5.5c9.2,11,18.7,22.4,29.3,34.8c2.5,3,4.2,4.3,5,4.9c0.9-0.4,2.8-1.5,5.9-4.1c53.4-44.5,106.7-89.1,160.1-133.6l5.3-4.4c49.6-41.4,99.1-82.7,148.7-124.1c18.6-15.5,37.5-31.3,55.9-46.6l6.1-5.1c8.1-6.8,16.3-13.6,24.5-20.4L499.9,191.4z"/></g>
</svg>