<svg width="29" height="25" viewBox="0 0 29 25" fill="none" xmlns="http://www.w3.org/2000/svg">
<path d="M28.0985 10.3781L25.2874 8.06802V3.46856C25.2874 3.36634 25.2468 3.26831 25.1745 3.19603C25.1023 3.12375 25.0042 3.08314 24.902 3.08314H23.3603C23.2614 3.08444 23.1668 3.12372 23.096 3.19287C23.0253 3.26201 22.9838 3.35572 22.9802 3.45459V6.17226L16.2292 0.62611C15.7442 0.22157 15.1326 0 14.501 0C13.8695 0 13.2579 0.22157 12.7729 0.62611L0.903551 10.3781C0.825918 10.4431 0.761843 10.5227 0.714986 10.6125C0.668128 10.7022 0.639406 10.8003 0.630458 10.9011C0.621511 11.002 0.632514 11.1036 0.662839 11.2001C0.693164 11.2967 0.742217 11.3864 0.807197 11.464L1.30053 12.0566C1.43173 12.2133 1.61977 12.3114 1.8233 12.3295C2.02683 12.3475 2.22921 12.284 2.38596 12.153L3.70938 11.0666V13.8748H3.69445V23.8956C3.6961 24.1004 3.7785 24.2962 3.92374 24.4406C4.06899 24.5849 4.26533 24.6661 4.4701 24.6665H24.5219C24.7263 24.6665 24.9224 24.5853 25.0669 24.4407C25.2115 24.2961 25.2927 24.1001 25.2927 23.8956V11.0666L26.6176 12.1549C26.7743 12.286 26.9767 12.3495 27.1802 12.3314C27.3838 12.3133 27.5718 12.2152 27.703 12.0585L28.1973 11.466C28.2624 11.3881 28.3116 11.2982 28.3419 11.2013C28.3722 11.1045 28.383 11.0026 28.3739 10.9015C28.3647 10.8005 28.3356 10.7022 28.2884 10.6124C28.2412 10.5225 28.1766 10.4429 28.0985 10.3781ZM22.9802 10.7915H22.9701V22.354H17.5844V15.4165C17.5844 15.0076 17.422 14.6155 17.1328 14.3264C16.8437 14.0372 16.4516 13.8748 16.0427 13.8748H12.9594C12.5505 13.8748 12.1584 14.0372 11.8693 14.3264C11.5801 14.6155 11.4177 15.0076 11.4177 15.4165V22.354H6.00695V9.36929L6.02188 9.35724V9.16453L14.501 2.19909L22.9802 9.16646V10.7915Z" fill="white"/>
</svg>
