<svg id="svg" version="1.1" xmlns="http://www.w3.org/2000/svg" xmlns:xlink="http://www.w3.org/1999/xlink" width="400" height="200" viewBox="0, 0, 400,200"><g id="svgg"><path id="path0" d="M0.000 100.000 L 0.000 131.200 200.000 131.200 L 400.000 131.200 400.000 100.000 L 400.000 68.800 200.000 68.800 L 0.000 68.800 0.000 100.000 " stroke="none" fill="#f1a822" fill-rule="evenodd"></path><path id="path1" d="M0.000 33.600 L 0.000 67.200 200.000 67.200 L 400.000 67.200 400.000 33.600 L 400.000 0.000 200.000 0.000 L 0.000 0.000 0.000 33.600 M53.077 16.215 C 55.870 16.945,58.375 17.994,58.536 18.500 C 58.576 18.626,57.626 18.700,55.950 18.700 C 53.506 18.700,52.529 18.842,51.100 19.403 C 50.880 19.489,50.385 19.674,50.000 19.815 C 49.615 19.955,49.075 20.215,48.800 20.392 C 48.525 20.569,48.040 20.846,47.722 21.006 C 43.022 23.377,39.966 31.177,41.398 37.149 C 43.099 44.242,50.826 49.814,57.302 48.617 C 59.619 48.188,58.452 49.278,55.500 50.299 C 46.030 53.574,36.064 48.592,32.697 38.900 C 31.775 36.245,31.775 30.955,32.697 28.300 C 34.786 22.288,39.273 18.046,45.200 16.480 C 47.117 15.974,51.578 15.824,53.077 16.215 M100.302 26.853 L 101.100 29.300 103.865 29.356 C 107.182 29.423,107.172 29.385,104.448 31.400 C 103.332 32.225,102.415 33.023,102.410 33.174 C 102.399 33.482,103.151 35.914,103.423 36.447 C 103.520 36.638,103.600 36.958,103.600 37.157 C 103.600 37.357,103.700 37.620,103.823 37.743 C 104.362 38.282,103.658 38.569,103.088 38.042 C 102.874 37.845,102.250 37.378,101.700 37.004 C 101.150 36.630,100.372 36.064,99.972 35.747 L 99.244 35.169 98.348 35.834 C 94.104 38.985,94.141 38.985,95.212 35.800 C 96.215 32.815,96.308 33.132,93.898 31.337 C 91.261 29.373,91.252 29.400,94.476 29.400 C 97.441 29.400,97.379 29.426,97.783 28.000 C 97.924 27.505,98.120 26.944,98.219 26.753 C 98.319 26.562,98.400 26.230,98.400 26.015 C 98.400 25.800,98.490 25.568,98.600 25.500 C 98.710 25.432,98.800 25.172,98.800 24.922 C 98.800 24.671,98.854 24.413,98.920 24.347 C 99.245 24.022,99.571 24.613,100.302 26.853 M83.967 25.951 C 84.223 26.803,84.516 27.656,84.617 27.847 C 84.718 28.038,84.800 28.358,84.800 28.557 C 84.800 29.295,85.192 29.400,87.940 29.400 C 91.329 29.400,91.326 29.383,88.225 31.600 C 87.225 32.315,86.406 33.020,86.404 33.168 C 86.399 33.481,87.559 37.134,87.829 37.658 C 88.192 38.362,87.705 38.613,87.088 38.040 C 86.874 37.842,86.160 37.306,85.500 36.848 C 84.840 36.391,84.078 35.840,83.806 35.624 C 83.333 35.248,82.757 35.318,82.400 35.793 C 82.345 35.866,81.850 36.230,81.300 36.601 C 80.750 36.972,79.969 37.538,79.565 37.859 C 79.161 38.180,78.744 38.389,78.639 38.324 C 78.460 38.214,78.991 36.206,79.424 35.353 C 79.521 35.162,79.600 34.830,79.600 34.615 C 79.600 34.400,79.690 34.168,79.800 34.100 C 80.503 33.665,79.985 32.890,78.012 31.427 C 75.262 29.388,75.259 29.400,78.482 29.400 C 81.542 29.400,81.337 29.517,81.983 27.400 C 82.235 26.575,82.522 25.744,82.621 25.553 C 82.719 25.362,82.800 25.024,82.800 24.803 C 82.800 23.728,83.507 24.424,83.967 25.951 M75.531 34.250 C 75.639 34.498,76.035 35.667,76.413 36.848 L 77.100 38.996 79.838 38.998 C 81.344 38.999,82.620 39.071,82.674 39.157 C 82.760 39.298,80.209 41.315,79.054 42.019 C 78.302 42.478,78.469 43.895,79.605 46.700 C 79.963 47.584,79.970 47.976,79.627 47.851 C 79.241 47.711,77.611 46.628,77.243 46.267 C 77.101 46.128,76.719 45.856,76.393 45.664 C 76.067 45.471,75.800 45.243,75.800 45.157 C 75.800 44.656,74.652 45.189,72.902 46.501 C 70.637 48.201,70.327 48.317,70.636 47.350 C 70.750 46.993,70.889 46.451,70.945 46.148 C 71.001 45.844,71.126 45.546,71.223 45.486 C 71.320 45.426,71.400 45.175,71.400 44.928 C 71.400 44.682,71.481 44.394,71.579 44.290 C 71.678 44.185,71.817 43.738,71.889 43.296 L 72.019 42.493 69.910 40.949 C 67.222 38.983,67.216 39.000,70.572 39.000 L 73.344 39.000 73.781 37.550 C 74.022 36.752,74.304 35.944,74.409 35.753 C 74.514 35.562,74.600 35.287,74.600 35.143 C 74.600 34.212,75.246 33.593,75.531 34.250 M91.534 34.250 C 91.643 34.498,92.037 35.668,92.409 36.850 L 93.087 39.000 95.832 39.000 C 99.238 39.000,99.244 39.013,96.700 40.819 C 94.168 42.617,94.224 42.469,95.094 45.067 C 95.745 47.014,95.949 48.000,95.700 48.000 C 95.590 48.000,93.558 46.580,93.400 46.393 C 93.142 46.085,91.398 45.000,91.164 45.001 C 91.019 45.002,90.001 45.677,88.902 46.501 C 87.804 47.326,86.807 48.000,86.687 48.000 C 86.434 48.000,86.553 46.853,86.823 46.686 C 86.920 46.626,87.000 46.400,87.000 46.185 C 87.000 45.970,87.082 45.638,87.182 45.447 C 87.407 45.015,88.000 43.038,88.000 42.716 C 88.000 42.585,87.055 41.787,85.900 40.942 C 83.223 38.984,83.218 39.000,86.568 39.000 L 89.336 39.000 89.587 38.150 C 89.726 37.682,89.920 37.144,90.019 36.953 C 90.119 36.762,90.200 36.430,90.200 36.215 C 90.200 36.000,90.290 35.768,90.400 35.700 C 90.510 35.632,90.600 35.420,90.600 35.228 C 90.600 34.223,91.231 33.562,91.534 34.250 M107.532 34.250 C 107.640 34.498,108.031 35.668,108.402 36.850 L 109.075 39.000 111.837 39.000 C 113.772 39.000,114.600 39.068,114.600 39.228 C 114.600 39.488,114.528 39.547,112.150 41.244 C 111.188 41.931,110.400 42.600,110.400 42.732 C 110.400 43.040,111.381 46.189,111.619 46.647 C 111.810 47.014,111.869 48.000,111.700 48.000 C 111.577 48.000,109.593 46.596,109.243 46.261 C 109.101 46.125,108.719 45.856,108.393 45.664 C 108.067 45.471,107.800 45.243,107.800 45.157 C 107.800 44.667,106.674 45.171,105.064 46.383 C 103.187 47.795,102.327 48.256,102.489 47.763 C 103.125 45.826,104.000 42.902,104.000 42.717 C 104.000 42.586,103.055 41.787,101.900 40.942 C 99.221 38.982,99.214 39.000,102.600 39.000 C 105.238 39.000,105.400 38.978,105.400 38.612 C 105.400 38.398,105.490 38.168,105.600 38.100 C 105.710 38.032,105.800 37.762,105.800 37.500 C 105.800 37.238,105.890 36.968,106.000 36.900 C 106.110 36.832,106.200 36.562,106.200 36.300 C 106.200 36.038,106.290 35.768,106.400 35.700 C 106.510 35.632,106.600 35.420,106.600 35.228 C 106.600 34.224,107.232 33.561,107.532 34.250 " stroke="none" fill="#048cbc" fill-rule="evenodd"></path><path id="path2" d="M47.300 16.327 C 47.080 16.371,46.360 16.510,45.700 16.635 C 32.677 19.099,27.716 36.354,37.281 45.919 C 39.615 48.253,42.078 49.630,45.700 50.625 C 47.720 51.180,52.793 50.972,54.900 50.248 C 57.974 49.191,58.200 49.003,56.400 49.001 C 52.373 48.998,48.453 47.497,45.729 44.916 C 35.555 35.277,41.805 18.740,55.790 18.296 C 56.840 18.263,57.745 18.223,57.800 18.209 C 58.144 18.118,54.247 16.748,52.941 16.501 C 51.498 16.227,48.287 16.128,47.300 16.327 M98.416 26.960 C 97.467 29.929,97.640 29.800,94.623 29.800 L 92.107 29.800 92.904 30.335 C 93.342 30.629,93.745 30.922,93.800 30.985 C 93.855 31.049,94.268 31.350,94.717 31.655 C 96.271 32.708,96.793 33.810,95.977 34.314 C 95.880 34.374,95.800 34.638,95.800 34.900 C 95.800 35.162,95.710 35.432,95.600 35.500 C 95.490 35.568,95.400 35.838,95.400 36.100 C 95.400 36.362,95.310 36.632,95.200 36.700 C 94.987 36.832,94.917 37.800,95.121 37.800 C 95.188 37.800,96.097 37.170,97.142 36.400 C 98.186 35.630,99.129 35.000,99.237 35.000 C 99.432 35.000,101.540 36.489,102.565 37.350 C 103.610 38.228,103.625 38.005,102.712 35.200 C 101.933 32.807,101.911 32.891,103.600 31.740 C 104.095 31.402,104.545 31.069,104.600 30.998 C 104.655 30.927,105.058 30.629,105.496 30.335 L 106.293 29.800 103.751 29.800 C 100.764 29.800,100.961 29.945,100.088 27.100 C 99.282 24.470,99.214 24.464,98.416 26.960 M82.380 27.038 C 81.473 29.916,81.630 29.800,78.649 29.800 L 76.160 29.800 78.030 31.127 C 80.345 32.769,80.929 33.726,79.977 34.314 C 79.880 34.374,79.800 34.600,79.800 34.815 C 79.800 35.030,79.719 35.362,79.619 35.553 C 79.297 36.174,78.932 37.599,79.063 37.729 C 79.133 37.799,79.665 37.499,80.245 37.063 C 82.099 35.668,83.074 35.000,83.256 35.000 C 83.435 35.000,85.585 36.527,86.565 37.350 C 86.859 37.597,87.168 37.800,87.250 37.800 C 87.474 37.800,87.431 36.843,87.200 36.700 C 87.090 36.632,87.000 36.400,87.000 36.185 C 87.000 35.970,86.918 35.638,86.818 35.447 C 85.816 33.538,85.959 32.859,87.600 31.740 C 88.095 31.402,88.545 31.069,88.600 30.998 C 88.655 30.927,89.058 30.629,89.496 30.335 L 90.293 29.800 87.771 29.800 C 84.785 29.800,85.004 29.957,84.097 27.163 C 83.252 24.556,83.165 24.550,82.380 27.038 M91.144 34.336 C 91.091 34.426,90.772 35.374,90.435 36.442 C 89.494 39.427,89.818 39.179,86.762 39.244 L 84.132 39.300 85.216 40.113 C 85.812 40.560,86.773 41.276,87.350 41.704 C 88.341 42.438,88.651 43.021,88.200 43.300 C 88.090 43.368,88.000 43.600,88.000 43.815 C 88.000 44.030,87.918 44.362,87.818 44.553 C 87.719 44.744,87.502 45.350,87.337 45.900 C 87.172 46.450,86.974 47.058,86.897 47.250 C 86.704 47.734,86.990 47.682,87.700 47.105 C 90.883 44.520,91.079 44.439,92.230 45.250 C 95.475 47.535,95.662 47.651,95.510 47.280 C 95.425 47.071,95.312 46.720,95.261 46.500 C 95.209 46.280,95.096 45.920,95.010 45.700 C 93.776 42.544,93.746 42.659,96.266 40.800 L 98.300 39.300 95.600 39.200 L 92.900 39.100 92.070 36.636 C 91.614 35.281,91.197 34.246,91.144 34.336 M107.041 34.732 C 106.919 35.044,106.586 36.010,106.301 36.878 C 105.475 39.398,105.780 39.199,102.743 39.207 L 100.100 39.214 100.700 39.718 C 101.030 39.995,101.949 40.676,102.743 41.231 C 104.189 42.242,104.631 42.849,104.220 43.260 C 104.099 43.381,104.000 43.682,104.000 43.928 C 104.000 44.175,103.910 44.432,103.800 44.500 C 103.690 44.568,103.600 44.838,103.600 45.100 C 103.600 45.362,103.520 45.626,103.423 45.686 C 103.326 45.746,103.203 46.044,103.151 46.348 C 103.099 46.651,102.989 47.058,102.907 47.250 C 102.700 47.735,102.991 47.682,103.700 47.105 C 106.883 44.520,107.079 44.439,108.230 45.250 C 110.946 47.163,111.600 47.609,111.600 47.548 C 111.600 47.511,111.240 46.410,110.800 45.100 C 110.360 43.790,110.000 42.698,110.000 42.674 C 110.000 42.550,110.722 41.972,112.467 40.700 L 114.387 39.300 111.643 39.200 L 108.900 39.100 108.082 36.632 C 107.307 34.297,107.251 34.195,107.041 34.732 M74.499 36.250 C 74.183 37.268,73.803 38.348,73.657 38.650 L 73.390 39.200 70.745 39.207 C 68.214 39.213,68.118 39.228,68.522 39.557 C 69.324 40.209,69.976 40.703,71.087 41.500 C 72.279 42.356,72.531 42.761,72.229 43.337 C 72.124 43.537,71.925 44.105,71.785 44.600 C 71.645 45.095,71.456 45.585,71.365 45.690 C 71.274 45.794,71.200 46.082,71.200 46.328 C 71.200 46.575,71.110 46.832,71.000 46.900 C 70.768 47.043,70.728 47.602,70.950 47.596 C 71.033 47.594,71.370 47.373,71.700 47.105 C 72.729 46.270,75.048 44.600,75.181 44.600 C 75.327 44.600,76.850 45.605,77.000 45.800 C 77.055 45.871,77.663 46.309,78.350 46.772 C 79.549 47.581,79.806 47.599,79.423 46.847 C 79.046 46.111,78.040 42.732,78.134 42.521 C 78.188 42.400,79.148 41.625,80.266 40.800 L 82.300 39.300 79.600 39.200 L 76.900 39.100 76.112 36.750 C 75.167 33.928,75.217 33.944,74.499 36.250 M0.000 68.100 L 0.000 68.800 200.000 68.800 L 400.000 68.800 400.000 68.100 L 400.000 67.400 200.000 67.400 L 0.000 67.400 0.000 68.100 M0.000 132.000 L 0.000 132.800 200.000 132.800 L 400.000 132.800 400.000 132.000 L 400.000 131.200 200.000 131.200 L 0.000 131.200 0.000 132.000 " stroke="none" fill="#f9fbfb" fill-rule="evenodd"></path><path id="path3" d="M0.000 166.400 L 0.000 200.000 200.000 200.000 L 400.000 200.000 400.000 166.400 L 400.000 132.800 200.000 132.800 L 0.000 132.800 0.000 166.400 " stroke="none" fill="#1c9c34" fill-rule="evenodd"></path><path id="path4" d="M45.200 16.480 C 39.273 18.046,34.786 22.288,32.697 28.300 C 31.775 30.955,31.775 36.245,32.697 38.900 C 36.064 48.592,46.030 53.574,55.500 50.299 C 58.452 49.278,59.619 48.188,57.302 48.617 C 50.826 49.814,43.099 44.242,41.398 37.149 C 39.966 31.177,43.022 23.377,47.722 21.006 C 48.040 20.846,48.525 20.569,48.800 20.392 C 49.075 20.215,49.615 19.955,50.000 19.815 C 50.385 19.674,50.880 19.489,51.100 19.403 C 52.529 18.842,53.506 18.700,55.950 18.700 C 57.626 18.700,58.576 18.626,58.536 18.500 C 58.375 17.994,55.870 16.945,53.077 16.215 C 51.578 15.824,47.117 15.974,45.200 16.480 M52.941 16.501 C 54.247 16.748,58.144 18.118,57.800 18.209 C 57.745 18.223,56.840 18.263,55.790 18.296 C 41.805 18.740,35.555 35.277,45.729 44.916 C 48.453 47.497,52.373 48.998,56.400 49.001 C 58.200 49.003,57.974 49.191,54.900 50.248 C 52.793 50.972,47.720 51.180,45.700 50.625 C 40.187 49.110,36.360 46.065,33.930 41.261 C 29.008 31.529,35.174 18.626,45.700 16.635 C 46.360 16.510,47.080 16.371,47.300 16.327 C 48.287 16.128,51.498 16.227,52.941 16.501 M98.920 24.347 C 98.854 24.413,98.800 24.671,98.800 24.922 C 98.800 25.172,98.710 25.432,98.600 25.500 C 98.490 25.568,98.400 25.800,98.400 26.015 C 98.400 26.230,98.319 26.562,98.219 26.753 C 98.120 26.944,97.924 27.505,97.783 28.000 C 97.379 29.426,97.441 29.400,94.476 29.400 C 91.252 29.400,91.261 29.373,93.898 31.337 C 96.308 33.132,96.215 32.815,95.212 35.800 C 94.141 38.985,94.104 38.985,98.348 35.834 L 99.244 35.169 99.972 35.747 C 100.372 36.064,101.150 36.630,101.700 37.004 C 102.250 37.378,102.874 37.845,103.088 38.042 C 103.658 38.569,104.362 38.282,103.823 37.743 C 103.700 37.620,103.600 37.357,103.600 37.157 C 103.600 36.958,103.520 36.638,103.423 36.447 C 103.151 35.914,102.399 33.482,102.410 33.174 C 102.415 33.023,103.332 32.225,104.448 31.400 C 107.172 29.385,107.182 29.423,103.865 29.356 L 101.100 29.300 100.302 26.853 C 99.571 24.613,99.245 24.022,98.920 24.347 M82.800 24.803 C 82.800 25.024,82.719 25.362,82.621 25.553 C 82.522 25.744,82.235 26.575,81.983 27.400 C 81.337 29.517,81.542 29.400,78.482 29.400 C 75.259 29.400,75.262 29.388,78.012 31.427 C 79.985 32.890,80.503 33.665,79.800 34.100 C 79.690 34.168,79.600 34.400,79.600 34.615 C 79.600 34.830,79.521 35.162,79.424 35.353 C 78.991 36.206,78.460 38.214,78.639 38.324 C 78.744 38.389,79.161 38.180,79.565 37.859 C 79.969 37.538,80.750 36.972,81.300 36.601 C 81.850 36.230,82.345 35.866,82.400 35.793 C 82.757 35.318,83.333 35.248,83.806 35.624 C 84.078 35.840,84.840 36.391,85.500 36.848 C 86.160 37.306,86.874 37.842,87.088 38.040 C 87.705 38.613,88.192 38.362,87.829 37.658 C 87.559 37.134,86.399 33.481,86.404 33.168 C 86.406 33.020,87.225 32.315,88.225 31.600 C 91.326 29.383,91.329 29.400,87.940 29.400 C 85.192 29.400,84.800 29.295,84.800 28.557 C 84.800 28.358,84.718 28.038,84.617 27.847 C 84.516 27.656,84.223 26.803,83.967 25.951 C 83.507 24.424,82.800 23.728,82.800 24.803 M100.088 27.100 C 100.961 29.945,100.764 29.800,103.751 29.800 L 106.293 29.800 105.496 30.335 C 105.058 30.629,104.655 30.927,104.600 30.998 C 104.545 31.069,104.095 31.402,103.600 31.740 C 101.911 32.891,101.933 32.807,102.712 35.200 C 103.625 38.005,103.610 38.228,102.565 37.350 C 101.540 36.489,99.432 35.000,99.237 35.000 C 99.129 35.000,98.186 35.630,97.142 36.400 C 96.097 37.170,95.188 37.800,95.121 37.800 C 94.917 37.800,94.987 36.832,95.200 36.700 C 95.310 36.632,95.400 36.362,95.400 36.100 C 95.400 35.838,95.490 35.568,95.600 35.500 C 95.710 35.432,95.800 35.162,95.800 34.900 C 95.800 34.638,95.880 34.374,95.977 34.314 C 96.793 33.810,96.271 32.708,94.717 31.655 C 94.268 31.350,93.855 31.049,93.800 30.985 C 93.745 30.922,93.342 30.629,92.904 30.335 L 92.107 29.800 94.623 29.800 C 97.640 29.800,97.467 29.929,98.416 26.960 C 99.214 24.464,99.282 24.470,100.088 27.100 M84.097 27.163 C 85.004 29.957,84.785 29.800,87.771 29.800 L 90.293 29.800 89.496 30.335 C 89.058 30.629,88.655 30.927,88.600 30.998 C 88.545 31.069,88.095 31.402,87.600 31.740 C 85.959 32.859,85.816 33.538,86.818 35.447 C 86.918 35.638,87.000 35.970,87.000 36.185 C 87.000 36.400,87.090 36.632,87.200 36.700 C 87.431 36.843,87.474 37.800,87.250 37.800 C 87.168 37.800,86.859 37.597,86.565 37.350 C 85.585 36.527,83.435 35.000,83.256 35.000 C 83.074 35.000,82.099 35.668,80.245 37.063 C 79.665 37.499,79.133 37.799,79.063 37.729 C 78.932 37.599,79.297 36.174,79.619 35.553 C 79.719 35.362,79.800 35.030,79.800 34.815 C 79.800 34.600,79.880 34.374,79.977 34.314 C 80.929 33.726,80.345 32.769,78.030 31.127 L 76.160 29.800 78.649 29.800 C 81.630 29.800,81.473 29.916,82.380 27.038 C 83.165 24.550,83.252 24.556,84.097 27.163 M74.850 34.341 C 74.713 34.638,74.600 34.998,74.600 35.143 C 74.600 35.287,74.514 35.562,74.409 35.753 C 74.304 35.944,74.022 36.752,73.781 37.550 L 73.344 39.000 70.572 39.000 C 67.216 39.000,67.222 38.983,69.910 40.949 L 72.019 42.493 71.889 43.296 C 71.817 43.738,71.678 44.185,71.579 44.290 C 71.481 44.394,71.400 44.682,71.400 44.928 C 71.400 45.175,71.320 45.426,71.223 45.486 C 71.126 45.546,71.001 45.844,70.945 46.148 C 70.889 46.451,70.750 46.993,70.636 47.350 C 70.327 48.317,70.637 48.201,72.902 46.501 C 74.652 45.189,75.800 44.656,75.800 45.157 C 75.800 45.243,76.067 45.471,76.393 45.664 C 76.719 45.856,77.101 46.128,77.243 46.267 C 77.611 46.628,79.241 47.711,79.627 47.851 C 79.970 47.976,79.963 47.584,79.605 46.700 C 78.469 43.895,78.302 42.478,79.054 42.019 C 80.209 41.315,82.760 39.298,82.674 39.157 C 82.620 39.071,81.344 38.999,79.838 38.998 L 77.100 38.996 76.413 36.848 C 75.350 33.522,75.281 33.412,74.850 34.341 M90.850 34.341 C 90.713 34.638,90.600 35.036,90.600 35.228 C 90.600 35.420,90.510 35.632,90.400 35.700 C 90.290 35.768,90.200 36.000,90.200 36.215 C 90.200 36.430,90.119 36.762,90.019 36.953 C 89.920 37.144,89.726 37.682,89.587 38.150 L 89.336 39.000 86.568 39.000 C 83.218 39.000,83.223 38.984,85.900 40.942 C 87.055 41.787,88.000 42.585,88.000 42.716 C 88.000 43.038,87.407 45.015,87.182 45.447 C 87.082 45.638,87.000 45.970,87.000 46.185 C 87.000 46.400,86.920 46.626,86.823 46.686 C 86.553 46.853,86.434 48.000,86.687 48.000 C 86.807 48.000,87.804 47.326,88.902 46.501 C 90.001 45.677,91.019 45.002,91.164 45.001 C 91.398 45.000,93.142 46.085,93.400 46.393 C 93.558 46.580,95.590 48.000,95.700 48.000 C 95.949 48.000,95.745 47.014,95.094 45.067 C 94.224 42.469,94.168 42.617,96.700 40.819 C 99.244 39.013,99.238 39.000,95.832 39.000 L 93.087 39.000 92.409 36.850 C 91.367 33.544,91.283 33.409,90.850 34.341 M106.850 34.341 C 106.713 34.638,106.600 35.036,106.600 35.228 C 106.600 35.420,106.510 35.632,106.400 35.700 C 106.290 35.768,106.200 36.038,106.200 36.300 C 106.200 36.562,106.110 36.832,106.000 36.900 C 105.890 36.968,105.800 37.238,105.800 37.500 C 105.800 37.762,105.710 38.032,105.600 38.100 C 105.490 38.168,105.400 38.398,105.400 38.612 C 105.400 38.978,105.238 39.000,102.600 39.000 C 99.214 39.000,99.221 38.982,101.900 40.942 C 103.055 41.787,104.000 42.586,104.000 42.717 C 104.000 42.902,103.125 45.826,102.489 47.763 C 102.327 48.256,103.187 47.795,105.064 46.383 C 106.674 45.171,107.800 44.667,107.800 45.157 C 107.800 45.243,108.067 45.471,108.393 45.664 C 108.719 45.856,109.101 46.125,109.243 46.261 C 109.593 46.596,111.577 48.000,111.700 48.000 C 111.869 48.000,111.810 47.014,111.619 46.647 C 111.381 46.189,110.400 43.040,110.400 42.732 C 110.400 42.600,111.188 41.931,112.150 41.244 C 114.528 39.547,114.600 39.488,114.600 39.228 C 114.600 39.068,113.772 39.000,111.837 39.000 L 109.075 39.000 108.402 36.850 C 107.365 33.541,107.283 33.408,106.850 34.341 M95.600 39.200 L 98.300 39.300 96.266 40.800 C 93.746 42.659,93.776 42.544,95.010 45.700 C 95.096 45.920,95.209 46.280,95.261 46.500 C 95.312 46.720,95.425 47.071,95.510 47.280 C 95.662 47.651,95.475 47.535,92.230 45.250 C 91.079 44.439,90.883 44.520,87.700 47.105 C 86.990 47.682,86.704 47.734,86.897 47.250 C 86.974 47.058,87.172 46.450,87.337 45.900 C 87.502 45.350,87.719 44.744,87.818 44.553 C 87.918 44.362,88.000 44.030,88.000 43.815 C 88.000 43.600,88.090 43.368,88.200 43.300 C 88.651 43.021,88.341 42.438,87.350 41.704 C 86.773 41.276,85.812 40.560,85.216 40.113 L 84.132 39.300 86.762 39.244 C 89.818 39.179,89.494 39.427,90.435 36.442 C 90.772 35.374,91.091 34.426,91.144 34.336 C 91.197 34.246,91.614 35.281,92.070 36.636 L 92.900 39.100 95.600 39.200 M111.643 39.200 L 114.387 39.300 112.467 40.700 C 110.722 41.972,110.000 42.550,110.000 42.674 C 110.000 42.698,110.360 43.790,110.800 45.100 C 111.240 46.410,111.600 47.511,111.600 47.548 C 111.600 47.609,110.946 47.163,108.230 45.250 C 107.079 44.439,106.883 44.520,103.700 47.105 C 102.991 47.682,102.700 47.735,102.907 47.250 C 102.989 47.058,103.099 46.651,103.151 46.348 C 103.203 46.044,103.326 45.746,103.423 45.686 C 103.520 45.626,103.600 45.362,103.600 45.100 C 103.600 44.838,103.690 44.568,103.800 44.500 C 103.910 44.432,104.000 44.175,104.000 43.928 C 104.000 43.682,104.099 43.381,104.220 43.260 C 104.631 42.849,104.189 42.242,102.743 41.231 C 101.949 40.676,101.030 39.995,100.700 39.718 L 100.100 39.214 102.743 39.207 C 105.780 39.199,105.475 39.398,106.301 36.878 C 107.304 33.819,107.156 33.840,108.082 36.632 L 108.900 39.100 111.643 39.200 M76.112 36.750 L 76.900 39.100 79.600 39.200 L 82.300 39.300 80.266 40.800 C 79.148 41.625,78.188 42.400,78.134 42.521 C 78.040 42.732,79.046 46.111,79.423 46.847 C 79.806 47.599,79.549 47.581,78.350 46.772 C 77.663 46.309,77.055 45.871,77.000 45.800 C 76.850 45.605,75.327 44.600,75.181 44.600 C 75.048 44.600,72.729 46.270,71.700 47.105 C 71.370 47.373,71.033 47.594,70.950 47.596 C 70.728 47.602,70.768 47.043,71.000 46.900 C 71.110 46.832,71.200 46.575,71.200 46.328 C 71.200 46.082,71.274 45.794,71.365 45.690 C 71.456 45.585,71.645 45.095,71.785 44.600 C 71.925 44.105,72.124 43.537,72.229 43.337 C 72.531 42.761,72.279 42.356,71.087 41.500 C 69.976 40.703,69.324 40.209,68.522 39.557 C 68.118 39.228,68.214 39.213,70.745 39.207 L 73.390 39.200 73.657 38.650 C 73.803 38.348,74.183 37.268,74.499 36.250 C 75.217 33.944,75.167 33.928,76.112 36.750 M99.950 67.350 C 154.978 67.378,245.023 67.378,300.050 67.350 C 355.078 67.322,310.055 67.300,200.000 67.300 C 89.945 67.300,44.923 67.322,99.950 67.350 " stroke="none" fill="#85ccdc" fill-rule="evenodd"></path></g></svg>