<svg width="27" height="18" viewBox="0 0 27 18" fill="none" xmlns="http://www.w3.org/2000/svg">
<path d="M25.4819 8.10173H3.37959L11.8438 1.55233C11.9492 1.47077 12.0337 1.37314 12.0927 1.26502C12.1516 1.1569 12.1838 1.04041 12.1873 0.9222C12.1908 0.803989 12.1656 0.686373 12.1132 0.576066C12.0608 0.465759 11.9821 0.364922 11.8817 0.279312C11.7813 0.193702 11.6611 0.124996 11.528 0.077117C11.395 0.0292377 11.2516 0.00312294 11.1061 0.000263356C10.9605 -0.00259623 10.8158 0.0178556 10.68 0.0604511C10.5442 0.103047 10.4201 0.166951 10.3147 0.248517L0.646834 7.7284C0.440065 7.89686 0.276444 8.09694 0.165428 8.31708C0.0544109 8.53722 -0.0017998 8.77305 4.39287e-05 9.01094C0.00188766 9.24883 0.0617492 9.48407 0.176169 9.70305C0.290589 9.92204 0.457298 10.1204 0.666661 10.2868L10.3147 17.7515C10.5275 17.9162 10.8122 18.0055 11.1061 17.9997C11.3999 17.994 11.6789 17.8936 11.8817 17.7207C12.0845 17.5478 12.1944 17.3165 12.1873 17.0778C12.1802 16.8391 12.0566 16.6124 11.8438 16.4477L3.34227 9.90206H25.4819C25.6274 9.90206 25.7715 9.87877 25.9059 9.83354C26.0404 9.7883 26.1625 9.72199 26.2654 9.63841C26.3683 9.55482 26.4499 9.45559 26.5056 9.34637C26.5613 9.23716 26.59 9.12011 26.59 9.00189C26.59 8.88368 26.5613 8.76663 26.5056 8.65742C26.4499 8.5482 26.3683 8.44897 26.2654 8.36538C26.1625 8.28179 26.0404 8.21549 25.9059 8.17025C25.7715 8.12502 25.6274 8.10173 25.4819 8.10173Z" fill="black"/>
</svg>
