<svg width="27" height="29" viewBox="0 0 27 29" fill="none" xmlns="http://www.w3.org/2000/svg">
<path d="M13.5 0C8.40433 0 4.1543 4.10475 4.1543 9.3457C4.1543 11.3396 4.75344 13.1175 5.9033 14.7835L12.7848 25.5215C13.1186 26.0435 13.882 26.0425 14.2152 25.5215L21.1265 14.747C22.2517 13.1565 22.8457 11.2889 22.8457 9.3457C22.8457 4.19248 18.6532 0 13.5 0ZM13.5 13.5937C11.1577 13.5937 9.25195 11.688 9.25195 9.3457C9.25195 7.00344 11.1577 5.09766 13.5 5.09766C15.8423 5.09766 17.748 7.00344 17.748 9.3457C17.748 11.688 15.8423 13.5937 13.5 13.5937Z" fill="#038992"/>
<path d="M20.1419 19.5234L15.8638 26.212C14.7564 27.9385 12.2374 27.9328 11.1354 26.2136L6.85028 19.5252C3.08005 20.3969 0.755859 21.9938 0.755859 23.902C0.755859 27.2134 7.32209 28.9997 13.5 28.9997C19.6779 28.9997 26.2441 27.2134 26.2441 23.902C26.2441 21.9924 23.9167 20.3947 20.1419 19.5234Z" fill="#038992"/>
</svg>
