<svg width="8" height="12" viewBox="0 0 8 12" fill="none" xmlns="http://www.w3.org/2000/svg">
<path d="M3.99987 5.74823C5.08456 5.74823 5.96703 4.86587 5.96703 3.78133C5.96703 2.69678 5.08456 1.81445 3.99987 1.81445C2.91518 1.81445 2.03271 2.69678 2.03271 3.78133C2.03271 4.86587 2.91518 5.74823 3.99987 5.74823ZM3.99987 2.51748C4.69686 2.51748 5.2639 3.08446 5.2639 3.78133C5.2639 4.47822 4.69688 5.0452 3.99987 5.0452C3.30286 5.0452 2.73584 4.47822 2.73584 3.78133C2.73584 3.08446 3.30289 2.51748 3.99987 2.51748Z" fill="black"/>
<path d="M1.85803 7.31557C2.39088 8.03691 2.17681 7.75638 3.71161 9.94767C3.85111 10.1476 4.14776 10.1486 4.28806 9.94798C5.8298 7.74628 5.61766 8.02514 6.14184 7.31555C6.67282 6.59667 7.22191 5.85333 7.52281 4.98225C7.9583 3.72129 7.77005 2.47364 6.99279 1.46911C6.99277 1.46911 6.99277 1.46909 6.99274 1.46909C6.28076 0.549188 5.16195 0 3.99994 0C2.83793 0 1.71912 0.549188 1.00711 1.46913C0.229853 2.47366 0.0416028 3.72134 0.477118 4.9823C0.777962 5.85335 1.32706 6.5967 1.85803 7.31557ZM1.56319 1.89935C2.14299 1.15027 3.05393 0.703031 3.99994 0.703031C4.94595 0.703031 5.85689 1.15027 6.43669 1.89935L6.43664 1.89933C7.06399 2.71008 7.21366 3.72347 6.85816 4.7528C6.59241 5.5222 6.07582 6.22156 5.57625 6.89789C5.18728 7.42446 5.3037 7.2634 3.99994 9.13226C2.69754 7.26528 2.81248 7.4243 2.42363 6.89789C1.92406 6.22156 1.40747 5.52218 1.14171 4.7528C0.786212 3.72345 0.935884 2.71008 1.56319 1.89935Z" fill="black"/>
<path d="M2.14674 8.83962C2.04305 8.67551 1.82593 8.62645 1.66177 8.73016L0.662161 9.3615C0.444099 9.49922 0.443888 9.81802 0.662161 9.95588L3.81216 11.9454C3.92684 12.0179 4.073 12.0179 4.18765 11.9454L7.33765 9.95588C7.55574 9.81816 7.55593 9.49936 7.33765 9.3615L6.33804 8.73016C6.17384 8.62648 5.95674 8.67551 5.85308 8.83962C5.74936 9.00375 5.7984 9.22085 5.96255 9.32454L6.49163 9.65869L3.9999 11.2325L1.50818 9.65869L2.03726 9.32454C2.20142 9.22088 2.25043 9.00377 2.14674 8.83962Z" fill="black"/>
</svg>
