<svg width="12" height="12" viewBox="0 0 12 12" fill="none" xmlns="http://www.w3.org/2000/svg">
<g clip-path="url(#clip0)">
<path d="M5.99987 5.74823C7.08456 5.74823 7.96703 4.86587 7.96703 3.78133C7.96703 2.69678 7.08456 1.81445 5.99987 1.81445C4.91518 1.81445 4.03271 2.69678 4.03271 3.78133C4.03271 4.86587 4.91518 5.74823 5.99987 5.74823ZM5.99987 2.51748C6.69686 2.51748 7.2639 3.08446 7.2639 3.78133C7.2639 4.47822 6.69688 5.0452 5.99987 5.0452C5.30286 5.0452 4.73584 4.47822 4.73584 3.78133C4.73584 3.08446 5.30289 2.51748 5.99987 2.51748Z" fill="black"/>
<path d="M3.85803 7.31557C4.39088 8.03691 4.17681 7.75638 5.71161 9.94767C5.85111 10.1476 6.14776 10.1486 6.28806 9.94798C7.8298 7.74628 7.61766 8.02514 8.14184 7.31555C8.67282 6.59667 9.22191 5.85333 9.52281 4.98225C9.9583 3.72129 9.77005 2.47364 8.99279 1.46911C8.99277 1.46911 8.99277 1.46909 8.99274 1.46909C8.28076 0.549188 7.16195 0 5.99994 0C4.83793 0 3.71912 0.549188 3.00711 1.46913C2.22985 2.47366 2.0416 3.72134 2.47712 4.9823C2.77796 5.85335 3.32706 6.5967 3.85803 7.31557ZM3.56319 1.89935C4.14299 1.15027 5.05393 0.703031 5.99994 0.703031C6.94595 0.703031 7.85689 1.15027 8.43669 1.89935L8.43664 1.89933C9.06399 2.71008 9.21366 3.72347 8.85816 4.7528C8.59241 5.5222 8.07582 6.22156 7.57625 6.89789C7.18728 7.42446 7.3037 7.2634 5.99994 9.13226C4.69754 7.26528 4.81248 7.4243 4.42363 6.89789C3.92406 6.22156 3.40747 5.52218 3.14171 4.7528C2.78621 3.72345 2.93588 2.71008 3.56319 1.89935Z" fill="black"/>
<path d="M4.14674 8.83962C4.04305 8.67551 3.82593 8.62645 3.66177 8.73016L2.66216 9.3615C2.4441 9.49922 2.44389 9.81802 2.66216 9.95588L5.81216 11.9454C5.92684 12.0179 6.073 12.0179 6.18765 11.9454L9.33765 9.95588C9.55574 9.81816 9.55593 9.49936 9.33765 9.3615L8.33804 8.73016C8.17384 8.62648 7.95674 8.67551 7.85308 8.83962C7.74936 9.00375 7.7984 9.22085 7.96255 9.32454L8.49163 9.65869L5.9999 11.2325L3.50818 9.65869L4.03726 9.32454C4.20142 9.22088 4.25043 9.00377 4.14674 8.83962Z" fill="black"/>
</g>
<defs>
<clipPath id="clip0">
<rect width="12" height="12" fill="white"/>
</clipPath>
</defs>
</svg>
