<svg width="25" height="26" viewBox="0 0 25 26" fill="none" xmlns="http://www.w3.org/2000/svg">
<g clip-path="url(#clip0)">
<path d="M12.4585 23.1062H3.1146C2.5415 23.1062 2.07642 22.6411 2.07642 22.068V3.38027C2.07642 2.80718 2.54155 2.34209 3.1146 2.34209H12.4585C13.0326 2.34209 13.4967 1.87803 13.4967 1.30391C13.4967 0.729785 13.0326 0.265625 12.4585 0.265625H3.1146C1.39741 0.265625 0 1.66309 0 3.38027V22.068C0 23.7852 1.39741 25.1826 3.1146 25.1826H12.4585C13.0326 25.1826 13.4967 24.7185 13.4967 24.1444C13.4967 23.5703 13.0326 23.1062 12.4585 23.1062Z" fill="black"/>
<path d="M24.6906 11.9849L18.3783 5.75568C17.9713 5.35285 17.3131 5.35807 16.9103 5.76608C16.5075 6.17409 16.5116 6.83127 16.9207 7.2341L21.4317 11.6859H9.34385C8.76973 11.6859 8.30566 12.15 8.30566 12.7241C8.30566 13.2982 8.76973 13.7623 9.34385 13.7623H21.4317L16.9207 18.2141C16.5117 18.617 16.5085 19.2741 16.9103 19.6821C17.1138 19.8877 17.3816 19.9915 17.6495 19.9915C17.9132 19.9915 18.1769 19.8919 18.3783 19.6925L24.6906 13.4632C24.8879 13.2681 25 13.0023 25 12.724C25 12.4459 24.8889 12.1812 24.6906 11.9849Z" fill="black"/>
</g>
<defs>
<clipPath id="clip0">
<rect width="25" height="25" fill="white" transform="translate(0 0.224121)"/>
</clipPath>
</defs>
</svg>
