<svg width="21" height="15" viewBox="0 0 21 15" fill="none" xmlns="http://www.w3.org/2000/svg">
<path d="M18.4615 0H2.23077C1.27762 0 0.5 0.776769 0.5 1.73077V13.2692C0.5 14.22 1.27415 15 2.23077 15H18.4615C19.4123 15 20.1923 14.2258 20.1923 13.2692V1.73077C20.1923 0.78 19.4182 0 18.4615 0ZM18.2225 1.15385L10.3828 8.99358L2.47535 1.15385H18.2225ZM1.65385 13.0303V1.96419L7.21073 7.47342L1.65385 13.0303ZM2.46973 13.8462L8.03012 8.28577L9.97846 10.2174C10.204 10.441 10.568 10.4403 10.7926 10.2156L12.6923 8.31589L18.2226 13.8462H2.46973ZM19.0385 13.0303L13.5082 7.5L19.0385 1.96969V13.0303Z" fill="#7F807F"/>
</svg>
