<svg width="12" height="12" viewBox="0 0 12 12" fill="none" xmlns="http://www.w3.org/2000/svg">
<path d="M10.8062 1.66095V1.19435C10.8062 0.535781 10.2704 0 9.61182 0H6.29011C5.97106 0 5.67115 0.124242 5.44557 0.349852L0.747801 5.04764C0.522191 5.27323 0.397949 5.57316 0.397949 5.89219C0.397949 6.21122 0.522191 6.51115 0.747801 6.73673L1.22515 7.21409C1.20493 7.30184 1.19421 7.39242 1.19421 7.48467C1.19421 7.8037 1.31846 8.10363 1.54407 8.32922L4.8657 11.6508C5.09853 11.8836 5.40439 12 5.71022 12C6.01606 12 6.32192 11.8836 6.55475 11.6507L11.2526 6.95292C11.4782 6.72731 11.6024 6.42741 11.6024 6.10837V2.78681C11.6024 2.26781 11.2695 1.82529 10.8062 1.66095ZM1.31082 6.1737C1.23563 6.09851 1.19419 5.99852 1.19419 5.89216C1.19419 5.7858 1.23563 5.68587 1.31082 5.61063L6.0086 0.912844C6.08382 0.83768 6.18378 0.796242 6.29014 0.796242H9.61179C9.83131 0.796242 10.0099 0.974836 10.0099 1.19435V1.59246H7.08636C6.7673 1.59246 6.46739 1.7167 6.24181 1.94231L1.66067 6.5235L1.31082 6.1737ZM10.6895 6.38991L5.99173 11.0877C5.83646 11.243 5.58392 11.2429 5.42871 11.0877L2.10706 7.76616C2.03187 7.69097 1.99043 7.59098 1.99043 7.48462C1.99043 7.37827 2.03187 7.27833 2.10706 7.20309L6.80485 2.50528C6.88006 2.43012 6.98002 2.38868 7.08638 2.38868H10.408C10.6275 2.38868 10.8061 2.56727 10.8061 2.78679V6.10835H10.8062C10.8062 6.21471 10.7647 6.31469 10.6895 6.38991Z" fill="black"/>
</svg>
