<svg width="30" height="30" viewBox="0 0 30 30" fill="none" xmlns="http://www.w3.org/2000/svg">
<g clip-path="url(#clip0)">
<path d="M27.4113 25.3038L25.2651 21.7263C24.2739 20.075 23.7501 18.1838 23.7501 16.2588V13.125C23.7501 9.16875 21.1101 5.82252 17.5001 4.74375V2.50002C17.5001 1.12125 16.3788 0 15.0001 0C13.6213 0 12.5 1.12125 12.5 2.50002V4.74375C8.89009 5.82252 6.25009 9.16875 6.25009 13.125V16.2588C6.25009 18.1838 5.72632 20.0738 4.73632 21.725L2.59009 25.3025C2.47384 25.4963 2.47132 25.7363 2.58259 25.9325C2.69386 26.1288 2.90011 26.2501 3.12511 26.2501H26.8751C27.1001 26.2501 27.3076 26.1288 27.4188 25.9338C27.5301 25.7388 27.5264 25.4963 27.4113 25.3038Z" fill="#038992"/>
<path d="M11.0625 27.5C11.7675 28.9725 13.26 30 14.9987 30C16.7374 30 18.23 28.9725 18.935 27.5H11.0625Z" fill="#038992"/>
</g>
<defs>
<clipPath id="clip0">
<rect width="30" height="30" fill="white"/>
</clipPath>
</defs>
</svg>
