<svg width="15" height="8" viewBox="0 0 15 8" fill="none" xmlns="http://www.w3.org/2000/svg">
<path fill-rule="evenodd" clip-rule="evenodd" d="M13.52 0.15977L6.82912 7.1595L6.77224 7.23084C6.6408 7.43056 6.67091 7.69908 6.85606 7.8661C7.06436 8.05399 7.39002 8.04227 7.58344 7.83993L14.2744 0.840195L14.3312 0.768856C14.4627 0.569133 14.4326 0.300617 14.2474 0.1336C14.0391 -0.0542939 13.7135 -0.0425771 13.52 0.15977ZM9.91821 0.15844L3.53664 6.772L0.887472 4.06861L0.817677 4.00907C0.620566 3.86933 0.342824 3.88198 0.159816 4.05121C-0.046067 4.2416 -0.0540875 4.55808 0.141902 4.75808L3.16674 7.84483L3.23946 7.90644C3.44497 8.05008 3.73524 8.02836 3.91504 7.84203L10.6692 0.842298L10.7265 0.771219C10.8589 0.572097 10.8301 0.303447 10.6457 0.135588C10.4383 -0.0532544 10.1126 -0.043023 9.91821 0.15844Z" fill="#7F807F"/>
</svg>
