<svg width="33" height="25" viewBox="0 0 33 25" fill="none" xmlns="http://www.w3.org/2000/svg">
<path d="M25.9946 14.5888V3.18301C25.9946 1.42791 24.5666 0 22.8116 0H3.18301C1.42791 0 0 1.42791 0 3.18301V14.5888C0 16.3439 1.42791 17.7718 3.18301 17.7718H6.04009L6.10103 20.6457C6.11927 21.5092 7.11077 21.9906 7.80049 21.4705L12.7065 17.7719H22.8116C24.5666 17.7718 25.9946 16.3439 25.9946 14.5888ZM32.8911 9.81427V18.5675C32.8911 20.3227 31.4632 21.7505 29.7081 21.7505H26.8465L26.79 23.9659C26.7753 24.5424 26.3028 24.9999 25.7294 24.9999C25.306 24.9999 25.5417 25.0733 20.235 21.7505H15.3845C14.7985 21.7505 14.3235 21.2756 14.3235 20.6895C14.3235 20.1035 14.7985 19.6285 15.3845 19.6285C21.0122 19.6285 20.7493 19.569 21.1027 19.7902L24.7161 22.0526L24.7515 20.6624C24.7662 20.0872 25.2367 19.6285 25.8121 19.6285H29.7081C30.2931 19.6285 30.7691 19.1525 30.7691 18.5675V9.81421C30.7691 9.22919 30.2931 8.7532 29.7081 8.7532C29.1221 8.7532 28.6471 8.27821 28.6471 7.6922C28.6471 7.1062 29.1221 6.6312 29.7081 6.6312C31.4632 6.63126 32.8911 8.05911 32.8911 9.81427ZM19.6285 6.96283C19.6285 7.54883 19.1535 8.02383 18.5675 8.02383H7.42702C6.84101 8.02383 6.36601 7.54883 6.36601 6.96283C6.36601 6.37682 6.84101 5.90183 7.42702 5.90183H18.5675C19.1535 5.90183 19.6285 6.37682 19.6285 6.96283ZM17.7055 11.6047C17.7055 12.1907 17.2305 12.6657 16.6445 12.6657H9.35008C8.76408 12.6657 8.28908 12.1907 8.28908 11.6047C8.28908 11.0187 8.76408 10.5437 9.35008 10.5437H16.6445C17.2305 10.5437 17.7055 11.0187 17.7055 11.6047Z" fill="white"/>
</svg>
