<svg width="28" height="27" viewBox="0 0 28 27" fill="none" xmlns="http://www.w3.org/2000/svg">
<path d="M14.9084 1.10465C14.9085 1.10478 14.9086 1.10492 14.9086 1.10505L18.1038 8.63036L18.2207 8.90566L18.5186 8.93287L26.6001 9.67125L26.6005 9.67129C26.9934 9.70691 27.3274 9.97431 27.451 10.3567L27.9268 10.203L27.451 10.3567C27.5745 10.739 27.4597 11.1562 27.1616 11.418L27.1608 11.4187L21.0519 16.8084L20.8297 17.0044L20.8949 17.2933L22.6962 25.277C22.7849 25.6714 22.6324 26.0756 22.3114 26.3091L22.311 26.3094C21.9906 26.543 21.5646 26.5604 21.2285 26.3572L21.2274 26.3565L14.2576 22.1655L13.9998 22.0105L13.7421 22.1656L6.7736 26.3582C6.77346 26.3583 6.77331 26.3584 6.77316 26.3585C6.61447 26.4532 6.44059 26.5 6.26699 26.5C6.0656 26.5 5.86415 26.437 5.69004 26.3104C5.36813 26.0756 5.21632 25.6711 5.30467 25.2784C5.30468 25.2783 5.30468 25.2783 5.30468 25.2783L7.10593 17.2944L7.17112 17.0055L6.94902 16.8095L0.840107 11.4188L0.839256 11.418C0.540774 11.1558 0.425477 10.7395 0.548823 10.3567C0.672168 9.97504 1.00577 9.70799 1.39867 9.67123C1.39885 9.67121 1.39903 9.67119 1.39921 9.67118L9.48122 8.93287L9.77905 8.90567L9.89596 8.63039L13.0914 1.10595C13.0914 1.10587 13.0914 1.10579 13.0915 1.10571C13.2495 0.735171 13.6065 0.5 13.9999 0.5C14.3935 0.5 14.7505 0.735322 14.9084 1.10465ZM25.9259 10.3766L18.2947 9.67928L18.2945 9.67926C17.9301 9.64566 17.6165 9.41588 17.473 9.07545L17.4726 9.07437L14.4602 1.97302L14.0001 0.88849L13.5397 1.97285L10.5237 9.07527L10.5229 9.07722C10.3819 9.41314 10.0688 9.6434 9.70496 9.67693L2.07284 10.3742L0.918007 10.4797L1.78749 11.247L7.55545 16.3372L7.5558 16.3375C7.83151 16.5804 7.95199 16.9528 7.87025 17.3118L7.87001 17.3128L6.17124 24.8484L5.91384 25.9901L6.91676 25.3868L13.4933 21.4302C13.4935 21.43 13.4937 21.4299 13.494 21.4298C13.6524 21.3353 13.8261 21.2886 13.9999 21.2886C14.1736 21.2886 14.3472 21.3352 14.5059 21.4298C14.5062 21.43 14.5064 21.4301 14.5067 21.4303L21.083 25.388L22.0862 25.9918L21.8286 24.8496L20.1285 17.3138L20.1284 17.3135C20.0474 16.9552 20.1684 16.5816 20.4428 16.3399L20.4431 16.3396L26.2113 11.2494L27.0807 10.4821L25.9259 10.3766Z" fill="#F7D501" stroke="white"/>
</svg>
