<svg width="26" height="23" viewBox="0 0 26 23" fill="none" xmlns="http://www.w3.org/2000/svg">
<path d="M12.0551 0.727355C12.3658 -0.169495 13.6342 -0.169495 13.9449 0.727355L16.2076 7.25855C16.3461 7.65816 16.7209 7.92747 17.1438 7.93115L24.1965 7.99254C25.1644 8.00096 25.5569 9.24235 24.7698 9.80568L19.1595 13.8211C18.8048 14.0749 18.6555 14.5294 18.7907 14.9441L20.9009 21.4202C21.1973 22.3296 20.1703 23.0961 19.3827 22.5534L13.5674 18.546C13.2258 18.3106 12.7742 18.3106 12.4326 18.546L6.61729 22.5534C5.82968 23.0962 4.80272 22.3296 5.09907 21.4202L7.20933 14.9441C7.34446 14.5294 7.19522 14.0749 6.84054 13.8211L1.23018 9.80569C0.443079 9.24235 0.835592 8.00096 1.80348 7.99254L8.85616 7.93115C9.27905 7.92747 9.65391 7.65816 9.79235 7.25855L12.0551 0.727355Z" fill="white"/>
</svg>
