<svg xmlns="http://www.w3.org/2000/svg" width="20" height="19.166" viewBox="0 0 20 19.166">
  <g id="Сгруппировать_13279" data-name="Сгруппировать 13279" transform="translate(1566 -1189.834)">
    <path id="Контур_13965" data-name="Контур 13965" d="M4.476,19.6a1.064,1.064,0,0,1-1.036-1.3l1.287-5.668L.364,8.8a1.064,1.064,0,0,1,.6-1.86L6.74,6.417,9.022,1.076a1.063,1.063,0,0,1,1.955,0L13.26,6.417l5.773.524a1.064,1.064,0,0,1,.6,1.86l-4.363,3.826L16.56,18.3a1.063,1.063,0,0,1-1.582,1.148L10,16.469,5.021,19.445A1.065,1.065,0,0,1,4.476,19.6ZM10,15.187a1.066,1.066,0,0,1,.545.151l4.7,2.81L14.029,12.8a1.063,1.063,0,0,1,.337-1.036l4.12-3.613-5.451-.495a1.062,1.062,0,0,1-.883-.644L10,1.969,7.846,7.011a1.059,1.059,0,0,1-.881.642l-5.452.5,4.12,3.613A1.061,1.061,0,0,1,5.97,12.8L4.756,18.147l4.7-2.809A1.066,1.066,0,0,1,10,15.187ZM6.7,6.521v0Zm6.607,0v0Z" transform="translate(-1566 1189.404)" fill="#038992"/>
    <path id="Контур_13966" data-name="Контур 13966" d="M-1561.5,1208.084c1.955-8.53,1.071-6.717,1.071-6.717l-4.533-4.046,6.618-.777,2.4-6.07,2.458,6.07,6.557.777-4.7,4.046,1.245,6.717-5.559-3.49Z" fill="#038992"/>
  </g>
</svg>
