<svg width="12" height="12" viewBox="0 0 12 12" fill="none" xmlns="http://www.w3.org/2000/svg">
<path d="M4.86399 1.65292C5.17907 0.765869 6.43355 0.76587 6.74863 1.65292L7.4537 3.63791C7.59433 4.03381 7.96742 4.2996 8.38753 4.30316L10.4798 4.32093C11.4537 4.3292 11.8423 5.58332 11.0437 6.14086L9.46369 7.24382C9.10024 7.49754 8.94717 7.96025 9.08763 8.38066L9.70061 10.2155C10.003 11.1207 8.9864 11.8947 8.1943 11.3623L6.36415 10.1322C6.02682 9.90543 5.5858 9.90543 5.24847 10.1322L3.41832 11.3623C2.62622 11.8947 1.6096 11.1207 1.91201 10.2155L2.52499 8.38066C2.66545 7.96025 2.51238 7.49754 2.14893 7.24382L0.568946 6.14086C-0.229726 5.58332 0.158872 4.3292 1.13286 4.32093L3.22509 4.30316C3.64521 4.2996 4.01829 4.03381 4.15892 3.63791L4.86399 1.65292Z" fill="#7F807F"/>
</svg>
