<svg width="25" height="23" viewBox="0 0 25 23" fill="none" xmlns="http://www.w3.org/2000/svg">
<path d="M24.1109 3.57967L21.4172 0.885535C20.2367 -0.295178 18.3049 -0.295178 17.1244 0.885535L5.23447 12.7774C4.55078 13.4613 4.16665 14.3887 4.16665 15.3557V16.6657C4.16665 17.8164 5.09941 18.7493 6.25 18.7493H7.55972C8.52661 18.7493 9.45396 18.3651 10.1376 17.6813L20.3125 7.50487C20.5159 7.30145 20.5159 6.97162 20.3125 6.7682L19.576 6.03168C19.3726 5.82826 19.0429 5.82826 18.8395 6.03168L8.66494 16.2078C8.37183 16.501 7.97432 16.6657 7.55981 16.6657H6.25V15.3558C6.25 14.9411 6.4147 14.5435 6.70786 14.2503L18.5974 2.35878C18.9678 1.98832 19.5739 1.98832 19.9442 2.35878L22.6379 5.05292C22.8124 5.22738 22.9167 5.47924 22.9167 5.72645C22.9167 5.97367 22.8124 6.22548 22.6379 6.39999L8.97002 20.0701C8.48159 20.5586 7.81914 20.833 7.12842 20.833H3.125C2.54971 20.833 2.08335 20.3665 2.08335 19.7911V15.7871C2.08335 15.0962 2.35776 14.4337 2.84619 13.9452L14.799 1.99051C15.0024 1.7871 15.0024 1.45726 14.799 1.25385L14.0625 0.517322C13.8591 0.313904 13.5294 0.313904 13.326 0.517322L1.3728 12.4724C0.493799 13.3515 0 14.5438 0 15.7871V19.7912C0 21.5174 1.39912 22.9167 3.125 22.9167H7.12842C8.37148 22.9167 9.56362 22.4228 10.4426 21.5437L24.1109 7.87318C24.676 7.308 25 6.52557 25 5.7264C25 4.92723 24.676 4.14481 24.1109 3.57967Z" fill="black"/>
</svg>
