<svg width="50" height="46" viewBox="0 0 50 46" fill="none" xmlns="http://www.w3.org/2000/svg">
<path d="M13.0198 36.4587C9.68454 36.4587 6.71779 34.3232 5.6405 31.144L5.56764 30.9044C5.31358 30.0625 5.20714 29.3545 5.20714 28.6461V14.4414L0.152954 31.3126C-0.497083 33.7941 0.984193 36.3668 3.46952 37.0523L35.6849 45.6798C36.087 45.7839 36.489 45.8339 36.885 45.8339C38.9599 45.8339 40.8558 44.4568 41.3872 42.4273L43.2641 36.4587H13.0198Z" fill="#038992"/>
<path d="M44.7909 0H13.5403C10.6697 0 8.33203 2.33769 8.33203 5.20869V28.1255C8.33203 30.9965 10.6697 33.3342 13.5403 33.3342H44.7909C47.6619 33.3342 49.9996 30.9965 49.9996 28.1255V5.20869C49.9996 2.33769 47.6619 0 44.7909 0ZM13.5403 4.16687H44.7909C45.3662 4.16687 45.8328 4.63342 45.8328 5.20869V19.9986L39.2515 12.319C38.5534 11.5004 37.5429 11.0628 36.4576 11.038C35.3784 11.0441 34.3659 11.5233 33.6743 12.3526L25.9364 21.64L23.4156 19.1254C21.9908 17.7005 19.6718 17.7005 18.2489 19.1254L12.4989 24.8734V5.20869C12.4989 4.63342 12.9655 4.16687 13.5403 4.16687Z" fill="#038992"/>
<path d="M18.7489 14.5837C21.0469 14.5837 22.9154 12.7149 22.9154 10.4169C22.9154 8.11886 21.0469 6.25 18.7489 6.25C16.4509 6.25 14.582 8.11886 14.582 10.4169C14.582 12.7149 16.4509 14.5837 18.7489 14.5837Z" fill="#038992"/>
</svg>
