<svg width="66" height="66" viewBox="0 0 66 66" fill="none" xmlns="http://www.w3.org/2000/svg">
<path d="M33 66C51.2254 66 66 51.2254 66 33C66 14.7746 51.2254 0 33 0C14.7746 0 0 14.7746 0 33C0 51.2254 14.7746 66 33 66Z" fill="#F2F4F5"/>
<path d="M57.0112 52.2968C55.5757 51.1624 53.8267 50.3456 51.9292 49.9496L42.8831 48.1346C41.9343 47.9531 41.2496 47.1034 41.2496 46.1134V44.0385C41.8312 43.2217 42.3798 42.1369 42.9532 41.0025C43.3987 40.1239 44.0711 38.7997 44.4052 38.4574C46.2367 36.6176 48.0063 34.551 48.5549 31.8862C49.0664 29.3865 48.5632 28.0748 47.9733 27.0188C47.9733 24.3829 47.8908 21.0829 47.2679 18.6821C47.1937 15.4316 46.6038 13.6043 45.1188 12.0038C44.0711 10.8694 42.5283 10.6054 41.2867 10.395C40.7999 10.3125 40.1276 10.197 39.8801 10.065C37.6814 8.877 35.5076 8.29538 32.9129 8.25C27.4803 8.47275 20.8019 11.9295 18.5662 18.0923C17.8732 19.9691 17.9433 23.0505 18.0011 25.5255L17.9474 27.0146C17.4153 28.0541 16.8914 29.3741 17.4071 31.8821C17.9516 34.551 19.7212 36.6217 21.5857 38.4862C21.8909 38.7997 22.5798 40.1363 23.0336 41.019C23.6152 42.1493 24.1679 43.23 24.7496 44.0426V46.1175C24.7496 47.1034 24.0607 47.9531 23.1078 48.1388L14.0534 49.9537C12.1683 50.3539 10.4193 51.1624 8.98794 52.2968C8.54244 52.6556 8.26194 53.1795 8.21657 53.7487C8.17119 54.318 8.36094 54.8749 8.74457 55.2998C14.9073 62.0978 23.7472 66 32.9996 66C42.2519 66 51.0959 62.1019 57.2546 55.2998C57.6382 54.8749 57.8321 54.3139 57.7826 53.7446C57.7372 53.1754 57.4567 52.6515 57.0112 52.2968Z" fill="#455A64"/>
</svg>
