<svg width="60" height="60" viewBox="0 0 60 60" fill="none" xmlns="http://www.w3.org/2000/svg">
<path d="M30 60C46.5685 60 60 46.5685 60 30C60 13.4315 46.5685 0 30 0C13.4315 0 0 13.4315 0 30C0 46.5685 13.4315 60 30 60Z" fill="#F2F4F5"/>
<path d="M51.8286 47.5425C50.5236 46.5113 48.9336 45.7687 47.2086 45.4088L38.9849 43.7587C38.1224 43.5938 37.4999 42.8213 37.4999 41.9212V40.035C38.0286 39.2925 38.5274 38.3062 39.0486 37.275C39.4536 36.4762 40.0649 35.2725 40.3686 34.9613C42.0336 33.2887 43.6424 31.41 44.1411 28.9875C44.6061 26.715 44.1486 25.5225 43.6124 24.5625C43.6124 22.1663 43.5374 19.1662 42.9711 16.9837C42.9036 14.0287 42.3674 12.3675 41.0174 10.9125C40.0649 9.88125 38.6624 9.64125 37.5336 9.45C37.0911 9.375 36.4799 9.27 36.2549 9.15C34.2561 8.07 32.2799 7.54125 29.9211 7.5C24.9824 7.7025 18.9111 10.845 16.8786 16.4475C16.2486 18.1538 16.3124 20.955 16.3649 23.205L16.3161 24.5588C15.8324 25.5037 15.3561 26.7038 15.8249 28.9837C16.3199 31.41 17.9286 33.2925 19.6236 34.9875C19.9011 35.2725 20.5274 36.4875 20.9399 37.29C21.4686 38.3175 21.9711 39.3 22.4999 40.0387V41.925C22.4999 42.8213 21.8736 43.5938 21.0074 43.7625L12.7761 45.4125C11.0624 45.7762 9.47237 46.5113 8.17112 47.5425C7.76612 47.8688 7.51112 48.345 7.46987 48.8625C7.42862 49.38 7.60112 49.8862 7.94987 50.2725C13.5524 56.4525 21.5886 60 29.9999 60C38.4111 60 46.4511 56.4562 52.0499 50.2725C52.3986 49.8862 52.5749 49.3763 52.5299 48.8587C52.4886 48.3413 52.2336 47.865 51.8286 47.5425Z" fill="#455A64"/>
</svg>
