<svg width="11" height="15" viewBox="0 0 11 15" fill="none" xmlns="http://www.w3.org/2000/svg">
<path d="M9.81522 0H0.684783C0.3066 0 0 0.305272 0 0.681817V14.3181C0 14.5802 0.15088 14.8191 0.388135 14.9327C0.625389 15.0462 0.906972 15.0143 1.11254 14.8506L5.25 11.555L9.38746 14.8506C9.51127 14.9492 9.6626 15 9.81531 15C9.91611 15 10.0175 14.9778 10.1119 14.9327C10.3491 14.8192 10.5 14.5803 10.5 14.3181V0.681817C10.5 0.305272 10.1934 0 9.81522 0ZM9.13043 12.8995L5.67776 10.1494C5.55272 10.0498 5.40134 9.99998 5.25 9.99998C5.09866 9.99998 4.94728 10.0498 4.82224 10.1494L1.36957 12.8995V1.36363H9.13043V12.8995Z" fill="#7F807F"/>
</svg>
