<svg width="15" height="15" viewBox="0 0 15 15" fill="none" xmlns="http://www.w3.org/2000/svg">
<path d="M14.9047 7.20722C14.7707 7.02391 11.5778 2.71875 7.49993 2.71875C3.42206 2.71875 0.229043 7.02391 0.0951857 7.20704C-0.0317286 7.38095 -0.0317286 7.61682 0.0951857 7.79072C0.229043 7.97404 3.42206 12.2792 7.49993 12.2792C11.5778 12.2792 14.7707 7.97401 14.9047 7.79087C15.0318 7.61699 15.0318 7.38095 14.9047 7.20722ZM7.49993 11.2902C4.49614 11.2902 1.89454 8.43277 1.12442 7.49863C1.89355 6.56368 4.4897 3.70776 7.49993 3.70776C10.5036 3.70776 13.105 6.56468 13.8754 7.49931C13.1063 8.43423 10.5102 11.2902 7.49993 11.2902Z" fill="#7F807F"/>
<path d="M7.50025 4.5332C5.86425 4.5332 4.5332 5.86425 4.5332 7.50025C4.5332 9.13625 5.86425 10.4673 7.50025 10.4673C9.13625 10.4673 10.4673 9.13625 10.4673 7.50025C10.4673 5.86425 9.13625 4.5332 7.50025 4.5332ZM7.50025 9.47826C6.40952 9.47826 5.52224 8.59094 5.52224 7.50025C5.52224 6.40955 6.40955 5.52224 7.50025 5.52224C8.59094 5.52224 9.47826 6.40955 9.47826 7.50025C9.47826 8.59094 8.59097 9.47826 7.50025 9.47826Z" fill="#7F807F"/>
</svg>
